<svg width="1440" height="414" viewBox="0 0 1440 414" fill="none" xmlns="http://www.w3.org/2000/svg">
<path d="M273.06 206V171.091H285.265C287.696 171.091 289.702 171.511 291.282 172.352C292.861 173.182 294.037 174.301 294.81 175.71C295.583 177.108 295.969 178.659 295.969 180.364C295.969 181.864 295.702 183.102 295.168 184.08C294.645 185.057 293.952 185.83 293.089 186.398C292.236 186.966 291.31 187.386 290.31 187.659V188C291.378 188.068 292.452 188.443 293.532 189.125C294.611 189.807 295.515 190.784 296.242 192.057C296.969 193.33 297.333 194.886 297.333 196.727C297.333 198.477 296.935 200.051 296.14 201.449C295.344 202.847 294.089 203.955 292.373 204.773C290.657 205.591 288.424 206 285.674 206H273.06ZM277.287 202.25H285.674C288.435 202.25 290.395 201.716 291.554 200.648C292.725 199.568 293.31 198.261 293.31 196.727C293.31 195.545 293.009 194.455 292.407 193.455C291.804 192.443 290.946 191.636 289.833 191.034C288.719 190.42 287.401 190.114 285.878 190.114H277.287V202.25ZM277.287 186.432H285.128C286.401 186.432 287.549 186.182 288.571 185.682C289.606 185.182 290.424 184.477 291.026 183.568C291.64 182.659 291.946 181.591 291.946 180.364C291.946 178.83 291.412 177.528 290.344 176.46C289.276 175.381 287.583 174.841 285.265 174.841H277.287V186.432ZM304.693 206V179.818H308.58V183.773H308.852C309.33 182.477 310.193 181.426 311.443 180.619C312.693 179.812 314.102 179.409 315.671 179.409C315.966 179.409 316.335 179.415 316.779 179.426C317.222 179.437 317.557 179.455 317.784 179.477V183.568C317.648 183.534 317.335 183.483 316.847 183.415C316.37 183.335 315.864 183.295 315.33 183.295C314.057 183.295 312.921 183.562 311.921 184.097C310.932 184.619 310.148 185.347 309.568 186.278C309 187.199 308.716 188.25 308.716 189.432V206H304.693ZM333.352 206.545C330.989 206.545 328.915 205.983 327.131 204.858C325.358 203.733 323.972 202.159 322.972 200.136C321.983 198.114 321.489 195.75 321.489 193.045C321.489 190.318 321.983 187.937 322.972 185.903C323.972 183.869 325.358 182.29 327.131 181.165C328.915 180.04 330.989 179.477 333.352 179.477C335.716 179.477 337.784 180.04 339.557 181.165C341.341 182.29 342.727 183.869 343.716 185.903C344.716 187.937 345.216 190.318 345.216 193.045C345.216 195.75 344.716 198.114 343.716 200.136C342.727 202.159 341.341 203.733 339.557 204.858C337.784 205.983 335.716 206.545 333.352 206.545ZM333.352 202.932C335.148 202.932 336.625 202.472 337.784 201.551C338.943 200.631 339.801 199.42 340.358 197.92C340.915 196.42 341.193 194.795 341.193 193.045C341.193 191.295 340.915 189.665 340.358 188.153C339.801 186.642 338.943 185.42 337.784 184.489C336.625 183.557 335.148 183.091 333.352 183.091C331.557 183.091 330.08 183.557 328.92 184.489C327.761 185.42 326.903 186.642 326.347 188.153C325.79 189.665 325.511 191.295 325.511 193.045C325.511 194.795 325.79 196.42 326.347 197.92C326.903 199.42 327.761 200.631 328.92 201.551C330.08 202.472 331.557 202.932 333.352 202.932ZM357.358 206L349.38 179.818H353.608L359.267 199.864H359.54L365.13 179.818H369.426L374.949 199.795H375.221L380.88 179.818H385.108L377.13 206H373.176L367.449 185.886H367.04L361.312 206H357.358ZM409.931 185.682L406.318 186.705C406.09 186.102 405.755 185.517 405.312 184.949C404.88 184.369 404.289 183.892 403.539 183.517C402.789 183.142 401.829 182.955 400.659 182.955C399.056 182.955 397.721 183.324 396.653 184.062C395.596 184.79 395.068 185.716 395.068 186.841C395.068 187.841 395.431 188.631 396.159 189.21C396.886 189.79 398.022 190.273 399.568 190.659L403.454 191.614C405.795 192.182 407.539 193.051 408.687 194.222C409.835 195.381 410.409 196.875 410.409 198.705C410.409 200.205 409.977 201.545 409.113 202.727C408.261 203.909 407.068 204.841 405.534 205.523C404 206.205 402.215 206.545 400.181 206.545C397.511 206.545 395.301 205.966 393.551 204.807C391.801 203.648 390.693 201.955 390.227 199.727L394.045 198.773C394.409 200.182 395.096 201.239 396.107 201.943C397.13 202.648 398.465 203 400.113 203C401.988 203 403.477 202.602 404.579 201.807C405.693 201 406.25 200.034 406.25 198.909C406.25 198 405.931 197.239 405.295 196.625C404.659 196 403.681 195.534 402.363 195.227L398 194.205C395.602 193.636 393.84 192.756 392.715 191.562C391.602 190.358 391.045 188.852 391.045 187.045C391.045 185.568 391.46 184.261 392.289 183.125C393.13 181.989 394.272 181.097 395.715 180.449C397.17 179.801 398.818 179.477 400.659 179.477C403.25 179.477 405.284 180.045 406.761 181.182C408.25 182.318 409.306 183.818 409.931 185.682ZM428.401 206.545C425.879 206.545 423.702 205.989 421.873 204.875C420.055 203.75 418.651 202.182 417.663 200.17C416.685 198.148 416.197 195.795 416.197 193.114C416.197 190.432 416.685 188.068 417.663 186.023C418.651 183.966 420.026 182.364 421.788 181.216C423.56 180.057 425.629 179.477 427.992 179.477C429.356 179.477 430.702 179.705 432.032 180.159C433.362 180.614 434.572 181.352 435.663 182.375C436.754 183.386 437.623 184.727 438.271 186.398C438.918 188.068 439.242 190.125 439.242 192.568V194.273H419.06V190.795H435.151C435.151 189.318 434.856 188 434.265 186.841C433.685 185.682 432.856 184.767 431.776 184.097C430.708 183.426 429.447 183.091 427.992 183.091C426.39 183.091 425.004 183.489 423.833 184.284C422.674 185.068 421.782 186.091 421.157 187.352C420.532 188.614 420.219 189.966 420.219 191.409V193.727C420.219 195.705 420.56 197.381 421.242 198.756C421.935 200.119 422.896 201.159 424.123 201.875C425.35 202.58 426.776 202.932 428.401 202.932C429.458 202.932 430.413 202.784 431.265 202.489C432.129 202.182 432.873 201.727 433.498 201.125C434.123 200.511 434.606 199.75 434.947 198.841L438.833 199.932C438.424 201.25 437.737 202.409 436.771 203.409C435.805 204.398 434.612 205.17 433.191 205.727C431.771 206.273 430.174 206.545 428.401 206.545ZM468.486 206.614C466.827 206.614 465.321 206.301 463.969 205.676C462.617 205.04 461.543 204.125 460.747 202.932C459.952 201.727 459.554 200.273 459.554 198.568C459.554 197.068 459.85 195.852 460.441 194.92C461.032 193.977 461.821 193.239 462.81 192.705C463.799 192.17 464.889 191.773 466.083 191.511C467.287 191.239 468.497 191.023 469.713 190.864C471.304 190.659 472.594 190.506 473.583 190.403C474.583 190.29 475.31 190.102 475.764 189.841C476.23 189.58 476.463 189.125 476.463 188.477V188.341C476.463 186.659 476.003 185.352 475.083 184.42C474.174 183.489 472.793 183.023 470.941 183.023C469.02 183.023 467.514 183.443 466.424 184.284C465.333 185.125 464.566 186.023 464.122 186.977L460.304 185.614C460.986 184.023 461.895 182.784 463.032 181.898C464.179 181 465.429 180.375 466.782 180.023C468.145 179.659 469.486 179.477 470.804 179.477C471.645 179.477 472.611 179.58 473.702 179.784C474.804 179.977 475.867 180.381 476.889 180.994C477.924 181.608 478.782 182.534 479.463 183.773C480.145 185.011 480.486 186.67 480.486 188.75V206H476.463V202.455H476.259C475.986 203.023 475.532 203.631 474.895 204.278C474.259 204.926 473.412 205.477 472.355 205.932C471.299 206.386 470.009 206.614 468.486 206.614ZM469.1 203C470.691 203 472.032 202.688 473.122 202.062C474.225 201.438 475.054 200.631 475.611 199.642C476.179 198.653 476.463 197.614 476.463 196.523V192.841C476.293 193.045 475.918 193.233 475.338 193.403C474.77 193.562 474.111 193.705 473.361 193.83C472.622 193.943 471.901 194.045 471.196 194.136C470.503 194.216 469.941 194.284 469.509 194.341C468.463 194.477 467.486 194.699 466.577 195.006C465.679 195.301 464.952 195.75 464.395 196.352C463.85 196.943 463.577 197.75 463.577 198.773C463.577 200.17 464.094 201.227 465.128 201.943C466.174 202.648 467.497 203 469.1 203ZM492.811 190.25V206H488.788V179.818H492.675V183.909H493.016C493.629 182.58 494.561 181.511 495.811 180.705C497.061 179.886 498.675 179.477 500.652 179.477C502.425 179.477 503.976 179.841 505.305 180.568C506.635 181.284 507.669 182.375 508.408 183.841C509.146 185.295 509.516 187.136 509.516 189.364V206H505.493V189.636C505.493 187.58 504.959 185.977 503.891 184.83C502.822 183.67 501.357 183.091 499.493 183.091C498.209 183.091 497.061 183.369 496.05 183.926C495.05 184.483 494.26 185.295 493.68 186.364C493.101 187.432 492.811 188.727 492.811 190.25ZM527.713 206.545C525.531 206.545 523.605 205.994 521.934 204.892C520.264 203.778 518.957 202.21 518.014 200.188C517.071 198.153 516.599 195.75 516.599 192.977C516.599 190.227 517.071 187.841 518.014 185.818C518.957 183.795 520.27 182.233 521.952 181.131C523.633 180.028 525.577 179.477 527.781 179.477C529.486 179.477 530.832 179.761 531.821 180.33C532.821 180.886 533.582 181.523 534.105 182.239C534.639 182.943 535.054 183.523 535.349 183.977H535.69V171.091H539.713V206H535.827V201.977H535.349C535.054 202.455 534.633 203.057 534.088 203.784C533.542 204.5 532.764 205.142 531.753 205.71C530.741 206.267 529.395 206.545 527.713 206.545ZM528.258 202.932C529.872 202.932 531.236 202.511 532.349 201.67C533.463 200.818 534.309 199.642 534.889 198.142C535.469 196.631 535.758 194.886 535.758 192.909C535.758 190.955 535.474 189.244 534.906 187.778C534.338 186.301 533.497 185.153 532.383 184.335C531.27 183.506 529.895 183.091 528.258 183.091C526.554 183.091 525.133 183.528 523.997 184.403C522.872 185.267 522.025 186.443 521.457 187.932C520.9 189.409 520.622 191.068 520.622 192.909C520.622 194.773 520.906 196.466 521.474 197.989C522.054 199.5 522.906 200.705 524.031 201.602C525.167 202.489 526.577 202.932 528.258 202.932ZM563.604 206V171.091H575.4C578.139 171.091 580.377 171.585 582.116 172.574C583.866 173.551 585.161 174.875 586.002 176.545C586.843 178.216 587.264 180.08 587.264 182.136C587.264 184.193 586.843 186.062 586.002 187.744C585.173 189.426 583.889 190.767 582.15 191.767C580.411 192.756 578.184 193.25 575.468 193.25H567.014V189.5H575.332C577.207 189.5 578.712 189.176 579.849 188.528C580.985 187.881 581.809 187.006 582.32 185.903C582.843 184.79 583.104 183.534 583.104 182.136C583.104 180.739 582.843 179.489 582.32 178.386C581.809 177.284 580.979 176.42 579.832 175.795C578.684 175.159 577.161 174.841 575.264 174.841H567.832V206H563.604ZM598.51 171.091V206H594.488V171.091H598.51ZM614.543 206.614C612.884 206.614 611.378 206.301 610.026 205.676C608.674 205.04 607.6 204.125 606.804 202.932C606.009 201.727 605.611 200.273 605.611 198.568C605.611 197.068 605.907 195.852 606.497 194.92C607.088 193.977 607.878 193.239 608.867 192.705C609.855 192.17 610.946 191.773 612.14 191.511C613.344 191.239 614.554 191.023 615.77 190.864C617.361 190.659 618.651 190.506 619.64 190.403C620.64 190.29 621.367 190.102 621.821 189.841C622.287 189.58 622.52 189.125 622.52 188.477V188.341C622.52 186.659 622.06 185.352 621.14 184.42C620.23 183.489 618.85 183.023 616.997 183.023C615.077 183.023 613.571 183.443 612.48 184.284C611.39 185.125 610.622 186.023 610.179 186.977L606.361 185.614C607.043 184.023 607.952 182.784 609.088 181.898C610.236 181 611.486 180.375 612.838 180.023C614.202 179.659 615.543 179.477 616.861 179.477C617.702 179.477 618.668 179.58 619.759 179.784C620.861 179.977 621.924 180.381 622.946 180.994C623.98 181.608 624.838 182.534 625.52 183.773C626.202 185.011 626.543 186.67 626.543 188.75V206H622.52V202.455H622.316C622.043 203.023 621.588 203.631 620.952 204.278C620.316 204.926 619.469 205.477 618.412 205.932C617.355 206.386 616.066 206.614 614.543 206.614ZM615.157 203C616.747 203 618.088 202.688 619.179 202.062C620.282 201.438 621.111 200.631 621.668 199.642C622.236 198.653 622.52 197.614 622.52 196.523V192.841C622.35 193.045 621.975 193.233 621.395 193.403C620.827 193.562 620.168 193.705 619.418 193.83C618.679 193.943 617.958 194.045 617.253 194.136C616.56 194.216 615.997 194.284 615.566 194.341C614.52 194.477 613.543 194.699 612.634 195.006C611.736 195.301 611.009 195.75 610.452 196.352C609.907 196.943 609.634 197.75 609.634 198.773C609.634 200.17 610.151 201.227 611.185 201.943C612.23 202.648 613.554 203 615.157 203ZM636.499 215.818C635.817 215.818 635.209 215.761 634.675 215.648C634.141 215.545 633.771 215.443 633.567 215.341L634.59 211.795C635.567 212.045 636.43 212.136 637.18 212.068C637.93 212 638.595 211.665 639.175 211.062C639.766 210.472 640.305 209.511 640.794 208.182L641.544 206.136L631.862 179.818H636.226L643.453 200.682H643.726L650.953 179.818H655.317L644.203 209.818C643.703 211.17 643.084 212.29 642.345 213.176C641.607 214.074 640.749 214.739 639.771 215.17C638.805 215.602 637.715 215.818 636.499 215.818ZM687.706 179.818V183.227H673.592V179.818H687.706ZM677.819 206V176.205C677.819 174.705 678.172 173.455 678.876 172.455C679.581 171.455 680.495 170.705 681.62 170.205C682.745 169.705 683.933 169.455 685.183 169.455C686.172 169.455 686.978 169.534 687.603 169.693C688.228 169.852 688.694 170 689.001 170.136L687.842 173.614C687.637 173.545 687.353 173.46 686.99 173.358C686.637 173.256 686.172 173.205 685.592 173.205C684.262 173.205 683.302 173.54 682.711 174.21C682.132 174.881 681.842 175.864 681.842 177.159V206H677.819ZM694.303 206V179.818H698.19V183.773H698.462C698.94 182.477 699.803 181.426 701.053 180.619C702.303 179.812 703.712 179.409 705.281 179.409C705.576 179.409 705.945 179.415 706.389 179.426C706.832 179.437 707.167 179.455 707.394 179.477V183.568C707.258 183.534 706.945 183.483 706.457 183.415C705.98 183.335 705.474 183.295 704.94 183.295C703.667 183.295 702.531 183.562 701.531 184.097C700.542 184.619 699.758 185.347 699.178 186.278C698.61 187.199 698.326 188.25 698.326 189.432V206H694.303ZM722.962 206.545C720.599 206.545 718.525 205.983 716.741 204.858C714.968 203.733 713.582 202.159 712.582 200.136C711.593 198.114 711.099 195.75 711.099 193.045C711.099 190.318 711.593 187.937 712.582 185.903C713.582 183.869 714.968 182.29 716.741 181.165C718.525 180.04 720.599 179.477 722.962 179.477C725.326 179.477 727.394 180.04 729.167 181.165C730.951 182.29 732.337 183.869 733.326 185.903C734.326 187.937 734.826 190.318 734.826 193.045C734.826 195.75 734.326 198.114 733.326 200.136C732.337 202.159 730.951 203.733 729.167 204.858C727.394 205.983 725.326 206.545 722.962 206.545ZM722.962 202.932C724.758 202.932 726.235 202.472 727.394 201.551C728.553 200.631 729.411 199.42 729.968 197.92C730.525 196.42 730.803 194.795 730.803 193.045C730.803 191.295 730.525 189.665 729.968 188.153C729.411 186.642 728.553 185.42 727.394 184.489C726.235 183.557 724.758 183.091 722.962 183.091C721.167 183.091 719.689 183.557 718.53 184.489C717.371 185.42 716.513 186.642 715.957 188.153C715.4 189.665 715.121 191.295 715.121 193.045C715.121 194.795 715.4 196.42 715.957 197.92C716.513 199.42 717.371 200.631 718.53 201.551C719.689 202.472 721.167 202.932 722.962 202.932ZM741.927 206V179.818H745.813V183.909H746.154C746.699 182.511 747.58 181.426 748.796 180.653C750.012 179.869 751.472 179.477 753.177 179.477C754.904 179.477 756.341 179.869 757.489 180.653C758.648 181.426 759.552 182.511 760.199 183.909H760.472C761.142 182.557 762.148 181.483 763.489 180.688C764.83 179.881 766.438 179.477 768.313 179.477C770.654 179.477 772.569 180.21 774.057 181.676C775.546 183.131 776.29 185.398 776.29 188.477V206H772.267V188.477C772.267 186.545 771.739 185.165 770.682 184.335C769.625 183.506 768.381 183.091 766.949 183.091C765.108 183.091 763.682 183.648 762.671 184.761C761.659 185.864 761.154 187.261 761.154 188.955V206H757.063V188.068C757.063 186.58 756.58 185.381 755.614 184.472C754.648 183.551 753.404 183.091 751.881 183.091C750.836 183.091 749.858 183.369 748.949 183.926C748.052 184.483 747.324 185.256 746.767 186.244C746.222 187.222 745.949 188.352 745.949 189.636V206H741.927ZM823.474 182C823.099 180.852 822.605 179.824 821.991 178.915C821.389 177.994 820.668 177.21 819.827 176.562C818.997 175.915 818.054 175.42 816.997 175.08C815.94 174.739 814.781 174.568 813.52 174.568C811.452 174.568 809.571 175.102 807.878 176.17C806.185 177.239 804.838 178.812 803.838 180.892C802.838 182.972 802.338 185.523 802.338 188.545C802.338 191.568 802.844 194.119 803.855 196.199C804.866 198.278 806.236 199.852 807.963 200.92C809.69 201.989 811.633 202.523 813.793 202.523C815.793 202.523 817.554 202.097 819.077 201.244C820.611 200.381 821.804 199.165 822.656 197.597C823.52 196.017 823.952 194.159 823.952 192.023L825.247 192.295H814.747V188.545H828.043V192.295C828.043 195.17 827.429 197.67 826.202 199.795C824.986 201.92 823.304 203.568 821.156 204.739C819.02 205.898 816.565 206.477 813.793 206.477C810.702 206.477 807.986 205.75 805.645 204.295C803.315 202.841 801.497 200.773 800.19 198.091C798.895 195.409 798.247 192.227 798.247 188.545C798.247 185.784 798.616 183.301 799.355 181.097C800.105 178.881 801.162 176.994 802.525 175.438C803.889 173.881 805.503 172.688 807.366 171.858C809.23 171.028 811.281 170.614 813.52 170.614C815.361 170.614 817.077 170.892 818.668 171.449C820.27 171.994 821.696 172.773 822.946 173.784C824.207 174.784 825.258 175.983 826.099 177.381C826.94 178.767 827.52 180.307 827.838 182H823.474ZM843.402 206.614C841.743 206.614 840.237 206.301 838.885 205.676C837.532 205.04 836.459 204.125 835.663 202.932C834.868 201.727 834.47 200.273 834.47 198.568C834.47 197.068 834.765 195.852 835.356 194.92C835.947 193.977 836.737 193.239 837.726 192.705C838.714 192.17 839.805 191.773 840.998 191.511C842.203 191.239 843.413 191.023 844.629 190.864C846.22 190.659 847.51 190.506 848.498 190.403C849.498 190.29 850.226 190.102 850.68 189.841C851.146 189.58 851.379 189.125 851.379 188.477V188.341C851.379 186.659 850.919 185.352 849.998 184.42C849.089 183.489 847.709 183.023 845.856 183.023C843.936 183.023 842.43 183.443 841.339 184.284C840.248 185.125 839.481 186.023 839.038 186.977L835.22 185.614C835.902 184.023 836.811 182.784 837.947 181.898C839.095 181 840.345 180.375 841.697 180.023C843.061 179.659 844.402 179.477 845.72 179.477C846.561 179.477 847.527 179.58 848.618 179.784C849.72 179.977 850.782 180.381 851.805 180.994C852.839 181.608 853.697 182.534 854.379 183.773C855.061 185.011 855.402 186.67 855.402 188.75V206H851.379V202.455H851.174C850.902 203.023 850.447 203.631 849.811 204.278C849.174 204.926 848.328 205.477 847.271 205.932C846.214 206.386 844.924 206.614 843.402 206.614ZM844.015 203C845.606 203 846.947 202.688 848.038 202.062C849.14 201.438 849.97 200.631 850.527 199.642C851.095 198.653 851.379 197.614 851.379 196.523V192.841C851.209 193.045 850.834 193.233 850.254 193.403C849.686 193.562 849.027 193.705 848.277 193.83C847.538 193.943 846.816 194.045 846.112 194.136C845.419 194.216 844.856 194.284 844.424 194.341C843.379 194.477 842.402 194.699 841.493 195.006C840.595 195.301 839.868 195.75 839.311 196.352C838.765 196.943 838.493 197.75 838.493 198.773C838.493 200.17 839.01 201.227 840.044 201.943C841.089 202.648 842.413 203 844.015 203ZM863.704 206V179.818H867.59V183.909H867.931C868.477 182.511 869.357 181.426 870.573 180.653C871.789 179.869 873.249 179.477 874.954 179.477C876.681 179.477 878.119 179.869 879.267 180.653C880.426 181.426 881.329 182.511 881.977 183.909H882.249C882.92 182.557 883.926 181.483 885.267 180.688C886.607 179.881 888.215 179.477 890.09 179.477C892.431 179.477 894.346 180.21 895.835 181.676C897.323 183.131 898.068 185.398 898.068 188.477V206H894.045V188.477C894.045 186.545 893.517 185.165 892.46 184.335C891.403 183.506 890.159 183.091 888.727 183.091C886.886 183.091 885.46 183.648 884.448 184.761C883.437 185.864 882.931 187.261 882.931 188.955V206H878.84V188.068C878.84 186.58 878.357 185.381 877.392 184.472C876.426 183.551 875.181 183.091 873.659 183.091C872.613 183.091 871.636 183.369 870.727 183.926C869.829 184.483 869.102 185.256 868.545 186.244C867.999 187.222 867.727 188.352 867.727 189.636V206H863.704ZM917.36 206.545C914.837 206.545 912.661 205.989 910.832 204.875C909.013 203.75 907.61 202.182 906.621 200.17C905.644 198.148 905.155 195.795 905.155 193.114C905.155 190.432 905.644 188.068 906.621 186.023C907.61 183.966 908.985 182.364 910.746 181.216C912.519 180.057 914.587 179.477 916.951 179.477C918.315 179.477 919.661 179.705 920.991 180.159C922.32 180.614 923.53 181.352 924.621 182.375C925.712 183.386 926.582 184.727 927.229 186.398C927.877 188.068 928.201 190.125 928.201 192.568V194.273H908.019V190.795H924.11C924.11 189.318 923.815 188 923.224 186.841C922.644 185.682 921.815 184.767 920.735 184.097C919.667 183.426 918.405 183.091 916.951 183.091C915.349 183.091 913.962 183.489 912.792 184.284C911.633 185.068 910.741 186.091 910.116 187.352C909.491 188.614 909.178 189.966 909.178 191.409V193.727C909.178 195.705 909.519 197.381 910.201 198.756C910.894 200.119 911.854 201.159 913.082 201.875C914.309 202.58 915.735 202.932 917.36 202.932C918.417 202.932 919.371 202.784 920.224 202.489C921.087 202.182 921.832 201.727 922.457 201.125C923.082 200.511 923.565 199.75 923.905 198.841L927.792 199.932C927.383 201.25 926.695 202.409 925.729 203.409C924.763 204.398 923.57 205.17 922.15 205.727C920.729 206.273 919.133 206.545 917.36 206.545ZM935.826 206V171.091H956.758V174.841H940.053V186.636H955.189V190.386H940.053V206H935.826ZM964.412 206V179.818H968.435V206H964.412ZM966.458 175.455C965.674 175.455 964.997 175.188 964.429 174.653C963.872 174.119 963.594 173.477 963.594 172.727C963.594 171.977 963.872 171.335 964.429 170.801C964.997 170.267 965.674 170 966.458 170C967.242 170 967.912 170.267 968.469 170.801C969.037 171.335 969.321 171.977 969.321 172.727C969.321 173.477 969.037 174.119 968.469 174.653C967.912 175.188 967.242 175.455 966.458 175.455ZM995.996 171.091V206H991.768V171.091H995.996ZM1008.91 190.25V206H1004.89V179.818H1008.77V183.909H1009.11C1009.73 182.58 1010.66 181.511 1011.91 180.705C1013.16 179.886 1014.77 179.477 1016.75 179.477C1018.52 179.477 1020.07 179.841 1021.4 180.568C1022.73 181.284 1023.77 182.375 1024.51 183.841C1025.24 185.295 1025.61 187.136 1025.61 189.364V206H1021.59V189.636C1021.59 187.58 1021.06 185.977 1019.99 184.83C1018.92 183.67 1017.45 183.091 1015.59 183.091C1014.31 183.091 1013.16 183.369 1012.15 183.926C1011.15 184.483 1010.36 185.295 1009.78 186.364C1009.2 187.432 1008.91 188.727 1008.91 190.25ZM1052.47 185.682L1048.86 186.705C1048.63 186.102 1048.29 185.517 1047.85 184.949C1047.42 184.369 1046.83 183.892 1046.08 183.517C1045.33 183.142 1044.37 182.955 1043.2 182.955C1041.59 182.955 1040.26 183.324 1039.19 184.062C1038.13 184.79 1037.61 185.716 1037.61 186.841C1037.61 187.841 1037.97 188.631 1038.7 189.21C1039.42 189.79 1040.56 190.273 1042.11 190.659L1045.99 191.614C1048.33 192.182 1050.08 193.051 1051.23 194.222C1052.37 195.381 1052.95 196.875 1052.95 198.705C1052.95 200.205 1052.51 201.545 1051.65 202.727C1050.8 203.909 1049.61 204.841 1048.07 205.523C1046.54 206.205 1044.75 206.545 1042.72 206.545C1040.05 206.545 1037.84 205.966 1036.09 204.807C1034.34 203.648 1033.23 201.955 1032.76 199.727L1036.58 198.773C1036.95 200.182 1037.63 201.239 1038.65 201.943C1039.67 202.648 1041 203 1042.65 203C1044.53 203 1046.01 202.602 1047.12 201.807C1048.23 201 1048.79 200.034 1048.79 198.909C1048.79 198 1048.47 197.239 1047.83 196.625C1047.2 196 1046.22 195.534 1044.9 195.227L1040.54 194.205C1038.14 193.636 1036.38 192.756 1035.25 191.562C1034.14 190.358 1033.58 188.852 1033.58 187.045C1033.58 185.568 1034 184.261 1034.83 183.125C1035.67 181.989 1036.81 181.097 1038.25 180.449C1039.71 179.801 1041.36 179.477 1043.2 179.477C1045.79 179.477 1047.82 180.045 1049.3 181.182C1050.79 182.318 1051.84 183.818 1052.47 185.682ZM1059.96 206V179.818H1063.98V206H1059.96ZM1062.01 175.455C1061.22 175.455 1060.55 175.188 1059.98 174.653C1059.42 174.119 1059.14 173.477 1059.14 172.727C1059.14 171.977 1059.42 171.335 1059.98 170.801C1060.55 170.267 1061.22 170 1062.01 170C1062.79 170 1063.46 170.267 1064.02 170.801C1064.59 171.335 1064.87 171.977 1064.87 172.727C1064.87 173.477 1064.59 174.119 1064.02 174.653C1063.46 175.188 1062.79 175.455 1062.01 175.455ZM1082.88 216.364C1080.94 216.364 1079.27 216.114 1077.87 215.614C1076.47 215.125 1075.31 214.477 1074.38 213.67C1073.45 212.875 1072.72 212.023 1072.18 211.114L1075.38 208.864C1075.74 209.341 1076.2 209.886 1076.76 210.5C1077.32 211.125 1078.08 211.665 1079.05 212.119C1080.02 212.585 1081.3 212.818 1082.88 212.818C1084.99 212.818 1086.74 212.307 1088.11 211.284C1089.49 210.261 1090.18 208.659 1090.18 206.477V201.159H1089.84C1089.54 201.636 1089.12 202.227 1088.57 202.932C1088.04 203.625 1087.27 204.244 1086.26 204.79C1085.26 205.324 1083.9 205.591 1082.2 205.591C1080.09 205.591 1078.19 205.091 1076.51 204.091C1074.84 203.091 1073.51 201.636 1072.53 199.727C1071.57 197.818 1071.09 195.5 1071.09 192.773C1071.09 190.091 1071.56 187.756 1072.5 185.767C1073.44 183.767 1074.76 182.222 1076.44 181.131C1078.12 180.028 1080.06 179.477 1082.27 179.477C1083.97 179.477 1085.32 179.761 1086.32 180.33C1087.34 180.886 1088.11 181.523 1088.64 182.239C1089.19 182.943 1089.61 183.523 1089.9 183.977H1090.31V179.818H1094.2V206.75C1094.2 209 1093.69 210.83 1092.67 212.239C1091.65 213.659 1090.29 214.699 1088.57 215.358C1086.87 216.028 1084.97 216.364 1082.88 216.364ZM1082.74 201.977C1084.36 201.977 1085.72 201.608 1086.84 200.869C1087.95 200.131 1088.8 199.068 1089.38 197.682C1089.95 196.295 1090.24 194.636 1090.24 192.705C1090.24 190.818 1089.96 189.153 1089.39 187.71C1088.82 186.267 1087.98 185.136 1086.87 184.318C1085.76 183.5 1084.38 183.091 1082.74 183.091C1081.04 183.091 1079.62 183.523 1078.48 184.386C1077.36 185.25 1076.51 186.409 1075.94 187.864C1075.39 189.318 1075.11 190.932 1075.11 192.705C1075.11 194.523 1075.39 196.131 1075.96 197.528C1076.54 198.915 1077.39 200.006 1078.52 200.801C1079.65 201.585 1081.06 201.977 1082.74 201.977ZM1106.55 190.25V206H1102.52V171.091H1106.55V183.909H1106.89C1107.5 182.557 1108.42 181.483 1109.65 180.688C1110.89 179.881 1112.53 179.477 1114.59 179.477C1116.38 179.477 1117.94 179.835 1119.28 180.551C1120.62 181.256 1121.66 182.341 1122.4 183.807C1123.15 185.261 1123.52 187.114 1123.52 189.364V206H1119.5V189.636C1119.5 187.557 1118.96 185.949 1117.88 184.812C1116.81 183.665 1115.33 183.091 1113.43 183.091C1112.11 183.091 1110.93 183.369 1109.89 183.926C1108.85 184.483 1108.03 185.295 1107.43 186.364C1106.84 187.432 1106.55 188.727 1106.55 190.25ZM1143.23 179.818V183.227H1129.66V179.818H1143.23ZM1133.61 173.545H1137.64V198.5C1137.64 199.636 1137.8 200.489 1138.13 201.057C1138.47 201.614 1138.9 201.989 1139.43 202.182C1139.96 202.364 1140.52 202.455 1141.11 202.455C1141.56 202.455 1141.92 202.432 1142.21 202.386C1142.49 202.33 1142.72 202.284 1142.89 202.25L1143.71 205.864C1143.43 205.966 1143.05 206.068 1142.56 206.17C1142.08 206.284 1141.46 206.341 1140.71 206.341C1139.57 206.341 1138.46 206.097 1137.36 205.608C1136.29 205.119 1135.39 204.375 1134.67 203.375C1133.97 202.375 1133.61 201.114 1133.61 199.591V173.545ZM1168.32 185.682L1164.7 186.705C1164.48 186.102 1164.14 185.517 1163.7 184.949C1163.27 184.369 1162.67 183.892 1161.92 183.517C1161.17 183.142 1160.21 182.955 1159.04 182.955C1157.44 182.955 1156.11 183.324 1155.04 184.062C1153.98 184.79 1153.45 185.716 1153.45 186.841C1153.45 187.841 1153.82 188.631 1154.54 189.21C1155.27 189.79 1156.41 190.273 1157.95 190.659L1161.84 191.614C1164.18 192.182 1165.92 193.051 1167.07 194.222C1168.22 195.381 1168.79 196.875 1168.79 198.705C1168.79 200.205 1168.36 201.545 1167.5 202.727C1166.65 203.909 1165.45 204.841 1163.92 205.523C1162.38 206.205 1160.6 206.545 1158.57 206.545C1155.9 206.545 1153.69 205.966 1151.94 204.807C1150.19 203.648 1149.08 201.955 1148.61 199.727L1152.43 198.773C1152.79 200.182 1153.48 201.239 1154.49 201.943C1155.52 202.648 1156.85 203 1158.5 203C1160.37 203 1161.86 202.602 1162.96 201.807C1164.08 201 1164.63 200.034 1164.63 198.909C1164.63 198 1164.32 197.239 1163.68 196.625C1163.04 196 1162.07 195.534 1160.75 195.227L1156.38 194.205C1153.99 193.636 1152.23 192.756 1151.1 191.562C1149.99 190.358 1149.43 188.852 1149.43 187.045C1149.43 185.568 1149.84 184.261 1150.67 183.125C1151.52 181.989 1152.66 181.097 1154.1 180.449C1155.56 179.801 1157.2 179.477 1159.04 179.477C1161.63 179.477 1163.67 180.045 1165.15 181.182C1166.63 182.318 1167.69 183.818 1168.32 185.682ZM147.618 237.818C147.413 236.091 146.583 234.75 145.129 233.795C143.674 232.841 141.89 232.364 139.777 232.364C138.231 232.364 136.879 232.614 135.72 233.114C134.572 233.614 133.674 234.301 133.027 235.176C132.39 236.051 132.072 237.045 132.072 238.159C132.072 239.091 132.294 239.892 132.737 240.562C133.191 241.222 133.771 241.773 134.476 242.216C135.18 242.648 135.919 243.006 136.691 243.29C137.464 243.562 138.174 243.784 138.822 243.955L142.368 244.909C143.277 245.148 144.288 245.477 145.402 245.898C146.527 246.318 147.601 246.892 148.623 247.619C149.657 248.335 150.51 249.256 151.18 250.381C151.851 251.506 152.186 252.886 152.186 254.523C152.186 256.409 151.691 258.114 150.703 259.636C149.726 261.159 148.294 262.369 146.407 263.267C144.532 264.165 142.254 264.614 139.572 264.614C137.072 264.614 134.907 264.21 133.078 263.403C131.26 262.597 129.828 261.472 128.782 260.028C127.748 258.585 127.163 256.909 127.027 255H131.39C131.504 256.318 131.947 257.409 132.72 258.273C133.504 259.125 134.493 259.761 135.686 260.182C136.89 260.591 138.186 260.795 139.572 260.795C141.186 260.795 142.635 260.534 143.919 260.011C145.203 259.477 146.22 258.739 146.97 257.795C147.72 256.841 148.095 255.727 148.095 254.455C148.095 253.295 147.771 252.352 147.123 251.625C146.476 250.898 145.623 250.307 144.566 249.852C143.51 249.398 142.368 249 141.14 248.659L136.845 247.432C134.118 246.648 131.958 245.528 130.368 244.074C128.777 242.619 127.981 240.716 127.981 238.364C127.981 236.409 128.51 234.705 129.566 233.25C130.635 231.784 132.066 230.648 133.862 229.841C135.669 229.023 137.686 228.614 139.913 228.614C142.163 228.614 144.163 229.017 145.913 229.824C147.663 230.619 149.049 231.71 150.072 233.097C151.106 234.483 151.652 236.057 151.708 237.818H147.618ZM170.528 264.545C168.005 264.545 165.829 263.989 163.999 262.875C162.181 261.75 160.778 260.182 159.789 258.17C158.812 256.148 158.323 253.795 158.323 251.114C158.323 248.432 158.812 246.068 159.789 244.023C160.778 241.966 162.153 240.364 163.914 239.216C165.687 238.057 167.755 237.477 170.119 237.477C171.482 237.477 172.829 237.705 174.159 238.159C175.488 238.614 176.698 239.352 177.789 240.375C178.88 241.386 179.749 242.727 180.397 244.398C181.045 246.068 181.369 248.125 181.369 250.568V252.273H161.187V248.795H177.278C177.278 247.318 176.982 246 176.391 244.841C175.812 243.682 174.982 242.767 173.903 242.097C172.835 241.426 171.573 241.091 170.119 241.091C168.516 241.091 167.13 241.489 165.96 242.284C164.801 243.068 163.909 244.091 163.284 245.352C162.659 246.614 162.346 247.966 162.346 249.409V251.727C162.346 253.705 162.687 255.381 163.369 256.756C164.062 258.119 165.022 259.159 166.249 259.875C167.477 260.58 168.903 260.932 170.528 260.932C171.585 260.932 172.539 260.784 173.391 260.489C174.255 260.182 174.999 259.727 175.624 259.125C176.249 258.511 176.732 257.75 177.073 256.841L180.96 257.932C180.551 259.25 179.863 260.409 178.897 261.409C177.931 262.398 176.738 263.17 175.318 263.727C173.897 264.273 172.301 264.545 170.528 264.545ZM196.153 264.614C194.494 264.614 192.988 264.301 191.636 263.676C190.283 263.04 189.209 262.125 188.414 260.932C187.619 259.727 187.221 258.273 187.221 256.568C187.221 255.068 187.516 253.852 188.107 252.92C188.698 251.977 189.488 251.239 190.476 250.705C191.465 250.17 192.556 249.773 193.749 249.511C194.954 249.239 196.164 249.023 197.38 248.864C198.971 248.659 200.261 248.506 201.249 248.403C202.249 248.29 202.976 248.102 203.431 247.841C203.897 247.58 204.13 247.125 204.13 246.477V246.341C204.13 244.659 203.67 243.352 202.749 242.42C201.84 241.489 200.459 241.023 198.607 241.023C196.687 241.023 195.181 241.443 194.09 242.284C192.999 243.125 192.232 244.023 191.789 244.977L187.971 243.614C188.653 242.023 189.562 240.784 190.698 239.898C191.846 239 193.096 238.375 194.448 238.023C195.812 237.659 197.153 237.477 198.471 237.477C199.312 237.477 200.278 237.58 201.369 237.784C202.471 237.977 203.533 238.381 204.556 238.994C205.59 239.608 206.448 240.534 207.13 241.773C207.812 243.011 208.153 244.67 208.153 246.75V264H204.13V260.455H203.925C203.653 261.023 203.198 261.631 202.562 262.278C201.925 262.926 201.079 263.477 200.022 263.932C198.965 264.386 197.675 264.614 196.153 264.614ZM196.766 261C198.357 261 199.698 260.688 200.789 260.062C201.891 259.438 202.721 258.631 203.278 257.642C203.846 256.653 204.13 255.614 204.13 254.523V250.841C203.959 251.045 203.584 251.233 203.005 251.403C202.437 251.562 201.778 251.705 201.028 251.83C200.289 251.943 199.567 252.045 198.863 252.136C198.17 252.216 197.607 252.284 197.175 252.341C196.13 252.477 195.153 252.699 194.244 253.006C193.346 253.301 192.619 253.75 192.062 254.352C191.516 254.943 191.244 255.75 191.244 256.773C191.244 258.17 191.761 259.227 192.795 259.943C193.84 260.648 195.164 261 196.766 261ZM216.455 264V237.818H220.341V241.773H220.614C221.091 240.477 221.955 239.426 223.205 238.619C224.455 237.812 225.864 237.409 227.432 237.409C227.728 237.409 228.097 237.415 228.54 237.426C228.983 237.437 229.319 237.455 229.546 237.477V241.568C229.409 241.534 229.097 241.483 228.608 241.415C228.131 241.335 227.625 241.295 227.091 241.295C225.819 241.295 224.682 241.562 223.682 242.097C222.694 242.619 221.909 243.347 221.33 244.278C220.762 245.199 220.478 246.25 220.478 247.432V264H216.455ZM245.114 264.545C242.659 264.545 240.546 263.966 238.773 262.807C237 261.648 235.637 260.051 234.682 258.017C233.727 255.983 233.25 253.659 233.25 251.045C233.25 248.386 233.739 246.04 234.716 244.006C235.705 241.96 237.08 240.364 238.841 239.216C240.614 238.057 242.682 237.477 245.046 237.477C246.887 237.477 248.546 237.818 250.023 238.5C251.5 239.182 252.71 240.136 253.654 241.364C254.597 242.591 255.182 244.023 255.409 245.659H251.387C251.08 244.466 250.398 243.409 249.341 242.489C248.296 241.557 246.887 241.091 245.114 241.091C243.546 241.091 242.171 241.5 240.989 242.318C239.818 243.125 238.904 244.267 238.244 245.744C237.597 247.21 237.273 248.932 237.273 250.909C237.273 252.932 237.591 254.693 238.227 256.193C238.875 257.693 239.784 258.858 240.955 259.688C242.137 260.517 243.523 260.932 245.114 260.932C246.159 260.932 247.108 260.75 247.96 260.386C248.813 260.023 249.534 259.5 250.125 258.818C250.716 258.136 251.137 257.318 251.387 256.364H255.409C255.182 257.909 254.619 259.301 253.722 260.54C252.835 261.767 251.659 262.744 250.193 263.472C248.739 264.188 247.046 264.545 245.114 264.545ZM266.273 248.25V264H262.25V229.091H266.273V241.909H266.614C267.227 240.557 268.148 239.483 269.375 238.688C270.614 237.881 272.261 237.477 274.318 237.477C276.102 237.477 277.665 237.835 279.006 238.551C280.347 239.256 281.386 240.341 282.125 241.807C282.875 243.261 283.25 245.114 283.25 247.364V264H279.227V247.636C279.227 245.557 278.687 243.949 277.608 242.812C276.54 241.665 275.057 241.091 273.159 241.091C271.841 241.091 270.659 241.369 269.614 241.926C268.579 242.483 267.761 243.295 267.159 244.364C266.568 245.432 266.273 246.727 266.273 248.25ZM334.666 240H330.438C330.188 238.784 329.751 237.716 329.126 236.795C328.512 235.875 327.762 235.102 326.876 234.477C326.001 233.841 325.029 233.364 323.961 233.045C322.893 232.727 321.779 232.568 320.62 232.568C318.507 232.568 316.592 233.102 314.876 234.17C313.171 235.239 311.813 236.812 310.802 238.892C309.802 240.972 309.302 243.523 309.302 246.545C309.302 249.568 309.802 252.119 310.802 254.199C311.813 256.278 313.171 257.852 314.876 258.92C316.592 259.989 318.507 260.523 320.62 260.523C321.779 260.523 322.893 260.364 323.961 260.045C325.029 259.727 326.001 259.256 326.876 258.631C327.762 257.994 328.512 257.216 329.126 256.295C329.751 255.364 330.188 254.295 330.438 253.091H334.666C334.348 254.875 333.768 256.472 332.927 257.881C332.086 259.29 331.041 260.489 329.791 261.477C328.541 262.455 327.137 263.199 325.58 263.71C324.035 264.222 322.382 264.477 320.62 264.477C317.643 264.477 314.995 263.75 312.677 262.295C310.359 260.841 308.535 258.773 307.205 256.091C305.876 253.409 305.211 250.227 305.211 246.545C305.211 242.864 305.876 239.682 307.205 237C308.535 234.318 310.359 232.25 312.677 230.795C314.995 229.341 317.643 228.614 320.62 228.614C322.382 228.614 324.035 228.869 325.58 229.381C327.137 229.892 328.541 230.642 329.791 231.631C331.041 232.608 332.086 233.801 332.927 235.21C333.768 236.608 334.348 238.205 334.666 240ZM352.548 264.545C350.184 264.545 348.11 263.983 346.326 262.858C344.553 261.733 343.167 260.159 342.167 258.136C341.178 256.114 340.684 253.75 340.684 251.045C340.684 248.318 341.178 245.937 342.167 243.903C343.167 241.869 344.553 240.29 346.326 239.165C348.11 238.04 350.184 237.477 352.548 237.477C354.911 237.477 356.979 238.04 358.752 239.165C360.536 240.29 361.923 241.869 362.911 243.903C363.911 245.937 364.411 248.318 364.411 251.045C364.411 253.75 363.911 256.114 362.911 258.136C361.923 260.159 360.536 261.733 358.752 262.858C356.979 263.983 354.911 264.545 352.548 264.545ZM352.548 260.932C354.343 260.932 355.82 260.472 356.979 259.551C358.138 258.631 358.996 257.42 359.553 255.92C360.11 254.42 360.388 252.795 360.388 251.045C360.388 249.295 360.11 247.665 359.553 246.153C358.996 244.642 358.138 243.42 356.979 242.489C355.82 241.557 354.343 241.091 352.548 241.091C350.752 241.091 349.275 241.557 348.116 242.489C346.957 243.42 346.099 244.642 345.542 246.153C344.985 247.665 344.707 249.295 344.707 251.045C344.707 252.795 344.985 254.42 345.542 255.92C346.099 257.42 346.957 258.631 348.116 259.551C349.275 260.472 350.752 260.932 352.548 260.932ZM371.512 264V237.818H375.535V264H371.512ZM373.557 233.455C372.773 233.455 372.097 233.188 371.529 232.653C370.972 232.119 370.694 231.477 370.694 230.727C370.694 229.977 370.972 229.335 371.529 228.801C372.097 228.267 372.773 228 373.557 228C374.341 228 375.012 228.267 375.569 228.801C376.137 229.335 376.421 229.977 376.421 230.727C376.421 231.477 376.137 232.119 375.569 232.653C375.012 233.188 374.341 233.455 373.557 233.455ZM387.885 248.25V264H383.862V237.818H387.749V241.909H388.09C388.703 240.58 389.635 239.511 390.885 238.705C392.135 237.886 393.749 237.477 395.726 237.477C397.499 237.477 399.05 237.841 400.379 238.568C401.709 239.284 402.743 240.375 403.482 241.841C404.22 243.295 404.59 245.136 404.59 247.364V264H400.567V247.636C400.567 245.58 400.033 243.977 398.965 242.83C397.897 241.67 396.431 241.091 394.567 241.091C393.283 241.091 392.135 241.369 391.124 241.926C390.124 242.483 389.334 243.295 388.754 244.364C388.175 245.432 387.885 246.727 387.885 248.25ZM431.446 243.682L427.832 244.705C427.605 244.102 427.27 243.517 426.827 242.949C426.395 242.369 425.804 241.892 425.054 241.517C424.304 241.142 423.344 240.955 422.173 240.955C420.571 240.955 419.236 241.324 418.168 242.062C417.111 242.79 416.582 243.716 416.582 244.841C416.582 245.841 416.946 246.631 417.673 247.21C418.401 247.79 419.537 248.273 421.082 248.659L424.969 249.614C427.31 250.182 429.054 251.051 430.202 252.222C431.349 253.381 431.923 254.875 431.923 256.705C431.923 258.205 431.491 259.545 430.628 260.727C429.776 261.909 428.582 262.841 427.048 263.523C425.514 264.205 423.73 264.545 421.696 264.545C419.026 264.545 416.815 263.966 415.065 262.807C413.315 261.648 412.207 259.955 411.741 257.727L415.56 256.773C415.923 258.182 416.611 259.239 417.622 259.943C418.645 260.648 419.98 261 421.628 261C423.503 261 424.991 260.602 426.094 259.807C427.207 259 427.764 258.034 427.764 256.909C427.764 256 427.446 255.239 426.81 254.625C426.173 254 425.196 253.534 423.878 253.227L419.514 252.205C417.116 251.636 415.355 250.756 414.23 249.562C413.116 248.358 412.56 246.852 412.56 245.045C412.56 243.568 412.974 242.261 413.804 241.125C414.645 239.989 415.787 239.097 417.23 238.449C418.685 237.801 420.332 237.477 422.173 237.477C424.764 237.477 426.798 238.045 428.276 239.182C429.764 240.318 430.821 241.818 431.446 243.682ZM444.939 259.227L444.666 261.068C444.473 262.364 444.177 263.75 443.78 265.227C443.393 266.705 442.99 268.097 442.569 269.403C442.149 270.71 441.802 271.75 441.53 272.523H438.461C438.609 271.795 438.802 270.835 439.041 269.642C439.28 268.449 439.518 267.114 439.757 265.636C440.007 264.17 440.211 262.67 440.371 261.136L440.575 259.227H444.939ZM466.448 232.841V229.091H492.63V232.841H481.653V264H477.425V232.841H466.448ZM506.408 264.545C504.045 264.545 501.971 263.983 500.187 262.858C498.414 261.733 497.027 260.159 496.027 258.136C495.039 256.114 494.545 253.75 494.545 251.045C494.545 248.318 495.039 245.937 496.027 243.903C497.027 241.869 498.414 240.29 500.187 239.165C501.971 238.04 504.045 237.477 506.408 237.477C508.772 237.477 510.84 238.04 512.613 239.165C514.397 240.29 515.783 241.869 516.772 243.903C517.772 245.937 518.272 248.318 518.272 251.045C518.272 253.75 517.772 256.114 516.772 258.136C515.783 260.159 514.397 261.733 512.613 262.858C510.84 263.983 508.772 264.545 506.408 264.545ZM506.408 260.932C508.204 260.932 509.681 260.472 510.84 259.551C511.999 258.631 512.857 257.42 513.414 255.92C513.971 254.42 514.249 252.795 514.249 251.045C514.249 249.295 513.971 247.665 513.414 246.153C512.857 244.642 511.999 243.42 510.84 242.489C509.681 241.557 508.204 241.091 506.408 241.091C504.613 241.091 503.135 241.557 501.976 242.489C500.817 243.42 499.959 244.642 499.402 246.153C498.846 247.665 498.567 249.295 498.567 251.045C498.567 252.795 498.846 254.42 499.402 255.92C499.959 257.42 500.817 258.631 501.976 259.551C503.135 260.472 504.613 260.932 506.408 260.932ZM529.122 254.455L529.054 249.477H529.872L541.327 237.818H546.304L534.1 250.159H533.759L529.122 254.455ZM525.372 264V229.091H529.395V264H525.372ZM542.009 264L531.782 251.045L534.645 248.25L547.122 264H542.009ZM562.341 264.545C559.818 264.545 557.642 263.989 555.813 262.875C553.994 261.75 552.591 260.182 551.602 258.17C550.625 256.148 550.136 253.795 550.136 251.114C550.136 248.432 550.625 246.068 551.602 244.023C552.591 241.966 553.966 240.364 555.727 239.216C557.5 238.057 559.568 237.477 561.932 237.477C563.296 237.477 564.642 237.705 565.972 238.159C567.301 238.614 568.511 239.352 569.602 240.375C570.693 241.386 571.563 242.727 572.21 244.398C572.858 246.068 573.182 248.125 573.182 250.568V252.273H553V248.795H569.091C569.091 247.318 568.796 246 568.205 244.841C567.625 243.682 566.796 242.767 565.716 242.097C564.648 241.426 563.386 241.091 561.932 241.091C560.33 241.091 558.943 241.489 557.773 242.284C556.614 243.068 555.722 244.091 555.097 245.352C554.472 246.614 554.159 247.966 554.159 249.409V251.727C554.159 253.705 554.5 255.381 555.182 256.756C555.875 258.119 556.835 259.159 558.063 259.875C559.29 260.58 560.716 260.932 562.341 260.932C563.398 260.932 564.352 260.784 565.205 260.489C566.068 260.182 566.813 259.727 567.438 259.125C568.063 258.511 568.546 257.75 568.886 256.841L572.773 257.932C572.364 259.25 571.676 260.409 570.71 261.409C569.744 262.398 568.551 263.17 567.131 263.727C565.71 264.273 564.114 264.545 562.341 264.545ZM584.284 248.25V264H580.261V237.818H584.148V241.909H584.488C585.102 240.58 586.034 239.511 587.284 238.705C588.534 237.886 590.148 237.477 592.125 237.477C593.898 237.477 595.449 237.841 596.778 238.568C598.108 239.284 599.142 240.375 599.881 241.841C600.619 243.295 600.988 245.136 600.988 247.364V264H596.966V247.636C596.966 245.58 596.432 243.977 595.363 242.83C594.295 241.67 592.829 241.091 590.966 241.091C589.682 241.091 588.534 241.369 587.523 241.926C586.523 242.483 585.733 243.295 585.153 244.364C584.574 245.432 584.284 246.727 584.284 248.25ZM627.845 243.682L624.231 244.705C624.004 244.102 623.669 243.517 623.225 242.949C622.794 242.369 622.203 241.892 621.453 241.517C620.703 241.142 619.742 240.955 618.572 240.955C616.97 240.955 615.635 241.324 614.566 242.062C613.51 242.79 612.981 243.716 612.981 244.841C612.981 245.841 613.345 246.631 614.072 247.21C614.799 247.79 615.936 248.273 617.481 248.659L621.367 249.614C623.708 250.182 625.453 251.051 626.6 252.222C627.748 253.381 628.322 254.875 628.322 256.705C628.322 258.205 627.89 259.545 627.027 260.727C626.174 261.909 624.981 262.841 623.447 263.523C621.913 264.205 620.129 264.545 618.095 264.545C615.424 264.545 613.214 263.966 611.464 262.807C609.714 261.648 608.606 259.955 608.14 257.727L611.958 256.773C612.322 258.182 613.01 259.239 614.021 259.943C615.044 260.648 616.379 261 618.027 261C619.902 261 621.39 260.602 622.492 259.807C623.606 259 624.163 258.034 624.163 256.909C624.163 256 623.845 255.239 623.208 254.625C622.572 254 621.595 253.534 620.277 253.227L615.913 252.205C613.515 251.636 611.754 250.756 610.629 249.562C609.515 248.358 608.958 246.852 608.958 245.045C608.958 243.568 609.373 242.261 610.203 241.125C611.044 239.989 612.186 239.097 613.629 238.449C615.083 237.801 616.731 237.477 618.572 237.477C621.163 237.477 623.197 238.045 624.674 239.182C626.163 240.318 627.22 241.818 627.845 243.682ZM659.684 264.477C657.388 264.477 655.411 264.057 653.752 263.216C652.093 262.375 650.814 261.222 649.917 259.756C649.019 258.29 648.57 256.614 648.57 254.727C648.57 253.273 648.877 251.983 649.491 250.858C650.116 249.722 650.974 248.67 652.064 247.705C653.167 246.727 654.434 245.75 655.866 244.773L660.911 241.023C661.9 240.375 662.689 239.682 663.28 238.943C663.883 238.205 664.184 237.239 664.184 236.045C664.184 235.159 663.792 234.301 663.008 233.472C662.235 232.642 661.218 232.227 659.957 232.227C659.07 232.227 658.286 232.455 657.604 232.909C656.934 233.352 656.405 233.92 656.019 234.614C655.644 235.295 655.457 236 655.457 236.727C655.457 237.545 655.678 238.375 656.121 239.216C656.576 240.045 657.15 240.898 657.843 241.773C658.547 242.636 659.275 243.523 660.025 244.432L676.047 264H671.207L657.979 248.045C656.752 246.568 655.638 245.227 654.638 244.023C653.638 242.818 652.843 241.631 652.252 240.46C651.661 239.29 651.366 238.023 651.366 236.659C651.366 235.091 651.712 233.716 652.405 232.534C653.11 231.341 654.093 230.415 655.354 229.756C656.627 229.085 658.116 228.75 659.82 228.75C661.57 228.75 663.076 229.091 664.337 229.773C665.599 230.443 666.57 231.335 667.252 232.449C667.934 233.551 668.275 234.75 668.275 236.045C668.275 237.716 667.86 239.165 667.03 240.392C666.201 241.619 665.07 242.761 663.638 243.818L656.684 249C655.116 250.159 654.053 251.284 653.496 252.375C652.939 253.466 652.661 254.25 652.661 254.727C652.661 255.818 652.945 256.835 653.513 257.778C654.082 258.722 654.883 259.483 655.917 260.062C656.951 260.642 658.161 260.932 659.547 260.932C660.866 260.932 662.15 260.653 663.4 260.097C664.65 259.528 665.78 258.71 666.792 257.642C667.814 256.574 668.621 255.29 669.212 253.79C669.814 252.29 670.116 250.602 670.116 248.727H674.002C674.002 251.045 673.735 252.937 673.201 254.403C672.667 255.869 672.064 257.017 671.394 257.847C670.724 258.676 670.184 259.295 669.775 259.705C669.638 259.875 669.513 260.045 669.4 260.216C669.286 260.386 669.161 260.557 669.025 260.727C667.9 261.989 666.479 262.932 664.763 263.557C663.047 264.17 661.354 264.477 659.684 264.477ZM724.148 229.091V264H720.057L701.034 236.591H700.693V264H696.466V229.091H700.557L719.648 256.568H719.989V229.091H724.148ZM733.567 264V229.091H754.498V232.841H737.794V244.636H752.93V248.386H737.794V264H733.567ZM760.789 232.841V229.091H786.971V232.841H775.994V264H771.767V232.841H760.789ZM797.387 229.091V241.091H793.637V229.091H797.387ZM824.056 243.682L820.442 244.705C820.215 244.102 819.88 243.517 819.437 242.949C819.005 242.369 818.414 241.892 817.664 241.517C816.914 241.142 815.954 240.955 814.783 240.955C813.181 240.955 811.846 241.324 810.778 242.062C809.721 242.79 809.192 243.716 809.192 244.841C809.192 245.841 809.556 246.631 810.283 247.21C811.011 247.79 812.147 248.273 813.692 248.659L817.579 249.614C819.92 250.182 821.664 251.051 822.812 252.222C823.959 253.381 824.533 254.875 824.533 256.705C824.533 258.205 824.101 259.545 823.238 260.727C822.386 261.909 821.192 262.841 819.658 263.523C818.124 264.205 816.34 264.545 814.306 264.545C811.636 264.545 809.425 263.966 807.675 262.807C805.925 261.648 804.817 259.955 804.351 257.727L808.17 256.773C808.533 258.182 809.221 259.239 810.232 259.943C811.255 260.648 812.59 261 814.238 261C816.113 261 817.601 260.602 818.704 259.807C819.817 259 820.374 258.034 820.374 256.909C820.374 256 820.056 255.239 819.42 254.625C818.783 254 817.806 253.534 816.488 253.227L812.124 252.205C809.726 251.636 807.965 250.756 806.84 249.562C805.726 248.358 805.17 246.852 805.17 245.045C805.17 243.568 805.584 242.261 806.414 241.125C807.255 239.989 808.397 239.097 809.84 238.449C811.295 237.801 812.942 237.477 814.783 237.477C817.374 237.477 819.408 238.045 820.886 239.182C822.374 240.318 823.431 241.818 824.056 243.682ZM850.781 229.091V264H846.554V229.091H850.781ZM863.695 248.25V264H859.672V237.818H863.558V241.909H863.899C864.513 240.58 865.445 239.511 866.695 238.705C867.945 237.886 869.558 237.477 871.535 237.477C873.308 237.477 874.859 237.841 876.189 238.568C877.518 239.284 878.552 240.375 879.291 241.841C880.03 243.295 880.399 245.136 880.399 247.364V264H876.376V247.636C876.376 245.58 875.842 243.977 874.774 242.83C873.706 241.67 872.24 241.091 870.376 241.091C869.092 241.091 867.945 241.369 866.933 241.926C865.933 242.483 865.143 243.295 864.564 244.364C863.984 245.432 863.695 246.727 863.695 248.25ZM931.397 229.091V264H927.306L908.284 236.591H907.943V264H903.715V229.091H907.806L926.897 256.568H927.238V229.091H931.397ZM947.975 264.614C946.316 264.614 944.81 264.301 943.458 263.676C942.106 263.04 941.032 262.125 940.236 260.932C939.441 259.727 939.043 258.273 939.043 256.568C939.043 255.068 939.339 253.852 939.93 252.92C940.521 251.977 941.31 251.239 942.299 250.705C943.288 250.17 944.379 249.773 945.572 249.511C946.776 249.239 947.986 249.023 949.202 248.864C950.793 248.659 952.083 248.506 953.072 248.403C954.072 248.29 954.799 248.102 955.254 247.841C955.719 247.58 955.952 247.125 955.952 246.477V246.341C955.952 244.659 955.492 243.352 954.572 242.42C953.663 241.489 952.282 241.023 950.43 241.023C948.509 241.023 947.004 241.443 945.913 242.284C944.822 243.125 944.055 244.023 943.611 244.977L939.793 243.614C940.475 242.023 941.384 240.784 942.521 239.898C943.668 239 944.918 238.375 946.271 238.023C947.634 237.659 948.975 237.477 950.293 237.477C951.134 237.477 952.1 237.58 953.191 237.784C954.293 237.977 955.356 238.381 956.379 238.994C957.413 239.608 958.271 240.534 958.952 241.773C959.634 243.011 959.975 244.67 959.975 246.75V264H955.952V260.455H955.748C955.475 261.023 955.021 261.631 954.384 262.278C953.748 262.926 952.901 263.477 951.844 263.932C950.788 264.386 949.498 264.614 947.975 264.614ZM948.589 261C950.18 261 951.521 260.688 952.611 260.062C953.714 259.438 954.543 258.631 955.1 257.642C955.668 256.653 955.952 255.614 955.952 254.523V250.841C955.782 251.045 955.407 251.233 954.827 251.403C954.259 251.562 953.6 251.705 952.85 251.83C952.111 251.943 951.39 252.045 950.685 252.136C949.992 252.216 949.43 252.284 948.998 252.341C947.952 252.477 946.975 252.699 946.066 253.006C945.168 253.301 944.441 253.75 943.884 254.352C943.339 254.943 943.066 255.75 943.066 256.773C943.066 258.17 943.583 259.227 944.617 259.943C945.663 260.648 946.986 261 948.589 261ZM979.664 237.818V241.227H966.096V237.818H979.664ZM970.05 231.545H974.073V256.5C974.073 257.636 974.238 258.489 974.567 259.057C974.908 259.614 975.34 259.989 975.863 260.182C976.397 260.364 976.959 260.455 977.55 260.455C977.993 260.455 978.357 260.432 978.641 260.386C978.925 260.33 979.152 260.284 979.323 260.25L980.141 263.864C979.868 263.966 979.488 264.068 978.999 264.17C978.51 264.284 977.891 264.341 977.141 264.341C976.005 264.341 974.891 264.097 973.8 263.608C972.721 263.119 971.823 262.375 971.107 261.375C970.402 260.375 970.05 259.114 970.05 257.591V231.545ZM1003.17 253.295V237.818H1007.2V264H1003.17V259.568H1002.9C1002.29 260.898 1001.33 262.028 1000.04 262.96C998.743 263.881 997.107 264.341 995.129 264.341C993.493 264.341 992.039 263.983 990.766 263.267C989.493 262.54 988.493 261.449 987.766 259.994C987.039 258.528 986.675 256.682 986.675 254.455V237.818H990.698V254.182C990.698 256.091 991.232 257.614 992.3 258.75C993.379 259.886 994.754 260.455 996.425 260.455C997.425 260.455 998.442 260.199 999.476 259.688C1000.52 259.176 1001.4 258.392 1002.1 257.335C1002.82 256.278 1003.17 254.932 1003.17 253.295ZM1015.53 264V237.818H1019.41V241.773H1019.68C1020.16 240.477 1021.03 239.426 1022.28 238.619C1023.53 237.812 1024.93 237.409 1026.5 237.409C1026.8 237.409 1027.17 237.415 1027.61 237.426C1028.05 237.437 1028.39 237.455 1028.62 237.477V241.568C1028.48 241.534 1028.17 241.483 1027.68 241.415C1027.2 241.335 1026.7 241.295 1026.16 241.295C1024.89 241.295 1023.75 241.562 1022.75 242.097C1021.76 242.619 1020.98 243.347 1020.4 244.278C1019.83 245.199 1019.55 246.25 1019.55 247.432V264H1015.53ZM1042.05 264.614C1040.39 264.614 1038.88 264.301 1037.53 263.676C1036.18 263.04 1035.11 262.125 1034.31 260.932C1033.52 259.727 1033.12 258.273 1033.12 256.568C1033.12 255.068 1033.41 253.852 1034 252.92C1034.59 251.977 1035.38 251.239 1036.37 250.705C1037.36 250.17 1038.45 249.773 1039.65 249.511C1040.85 249.239 1042.06 249.023 1043.28 248.864C1044.87 248.659 1046.16 248.506 1047.15 248.403C1048.15 248.29 1048.87 248.102 1049.33 247.841C1049.79 247.58 1050.03 247.125 1050.03 246.477V246.341C1050.03 244.659 1049.57 243.352 1048.65 242.42C1047.74 241.489 1046.36 241.023 1044.5 241.023C1042.58 241.023 1041.08 241.443 1039.99 242.284C1038.9 243.125 1038.13 244.023 1037.69 244.977L1033.87 243.614C1034.55 242.023 1035.46 240.784 1036.59 239.898C1037.74 239 1038.99 238.375 1040.34 238.023C1041.71 237.659 1043.05 237.477 1044.37 237.477C1045.21 237.477 1046.17 237.58 1047.27 237.784C1048.37 237.977 1049.43 238.381 1050.45 238.994C1051.49 239.608 1052.34 240.534 1053.03 241.773C1053.71 243.011 1054.05 244.67 1054.05 246.75V264H1050.03V260.455H1049.82C1049.55 261.023 1049.09 261.631 1048.46 262.278C1047.82 262.926 1046.98 263.477 1045.92 263.932C1044.86 264.386 1043.57 264.614 1042.05 264.614ZM1042.66 261C1044.25 261 1045.59 260.688 1046.69 260.062C1047.79 259.438 1048.62 258.631 1049.17 257.642C1049.74 256.653 1050.03 255.614 1050.03 254.523V250.841C1049.86 251.045 1049.48 251.233 1048.9 251.403C1048.33 251.562 1047.67 251.705 1046.92 251.83C1046.19 251.943 1045.46 252.045 1044.76 252.136C1044.07 252.216 1043.5 252.284 1043.07 252.341C1042.03 252.477 1041.05 252.699 1040.14 253.006C1039.24 253.301 1038.52 253.75 1037.96 254.352C1037.41 254.943 1037.14 255.75 1037.14 256.773C1037.14 258.17 1037.66 259.227 1038.69 259.943C1039.74 260.648 1041.06 261 1042.66 261ZM1066.37 229.091V264H1062.35V229.091H1066.37ZM1089.71 264V229.091H1093.94V260.25H1110.16V264H1089.71ZM1124.83 264.614C1123.17 264.614 1121.66 264.301 1120.31 263.676C1118.96 263.04 1117.88 262.125 1117.09 260.932C1116.29 259.727 1115.9 258.273 1115.9 256.568C1115.9 255.068 1116.19 253.852 1116.78 252.92C1117.37 251.977 1118.16 251.239 1119.15 250.705C1120.14 250.17 1121.23 249.773 1122.42 249.511C1123.63 249.239 1124.84 249.023 1126.05 248.864C1127.65 248.659 1128.93 248.506 1129.92 248.403C1130.92 248.29 1131.65 248.102 1132.11 247.841C1132.57 247.58 1132.8 247.125 1132.8 246.477V246.341C1132.8 244.659 1132.34 243.352 1131.42 242.42C1130.51 241.489 1129.13 241.023 1127.28 241.023C1125.36 241.023 1123.86 241.443 1122.76 242.284C1121.67 243.125 1120.91 244.023 1120.46 244.977L1116.65 243.614C1117.33 242.023 1118.24 240.784 1119.37 239.898C1120.52 239 1121.77 238.375 1123.12 238.023C1124.49 237.659 1125.83 237.477 1127.15 237.477C1127.99 237.477 1128.95 237.58 1130.04 237.784C1131.15 237.977 1132.21 238.381 1133.23 238.994C1134.26 239.608 1135.12 240.534 1135.8 241.773C1136.49 243.011 1136.83 244.67 1136.83 246.75V264H1132.8V260.455H1132.6C1132.33 261.023 1131.87 261.631 1131.24 262.278C1130.6 262.926 1129.75 263.477 1128.7 263.932C1127.64 264.386 1126.35 264.614 1124.83 264.614ZM1125.44 261C1127.03 261 1128.37 260.688 1129.46 260.062C1130.57 259.438 1131.4 258.631 1131.95 257.642C1132.52 256.653 1132.8 255.614 1132.8 254.523V250.841C1132.63 251.045 1132.26 251.233 1131.68 251.403C1131.11 251.562 1130.45 251.705 1129.7 251.83C1128.96 251.943 1128.24 252.045 1127.54 252.136C1126.84 252.216 1126.28 252.284 1125.85 252.341C1124.8 252.477 1123.83 252.699 1122.92 253.006C1122.02 253.301 1121.29 253.75 1120.74 254.352C1120.19 254.943 1119.92 255.75 1119.92 256.773C1119.92 258.17 1120.43 259.227 1121.47 259.943C1122.51 260.648 1123.84 261 1125.44 261ZM1149.15 248.25V264H1145.13V237.818H1149.02V241.909H1149.36C1149.97 240.58 1150.9 239.511 1152.15 238.705C1153.4 237.886 1155.02 237.477 1156.99 237.477C1158.77 237.477 1160.32 237.841 1161.65 238.568C1162.98 239.284 1164.01 240.375 1164.75 241.841C1165.49 243.295 1165.86 245.136 1165.86 247.364V264H1161.83V247.636C1161.83 245.58 1161.3 243.977 1160.23 242.83C1159.16 241.67 1157.7 241.091 1155.83 241.091C1154.55 241.091 1153.4 241.369 1152.39 241.926C1151.39 242.483 1150.6 243.295 1150.02 244.364C1149.44 245.432 1149.15 246.727 1149.15 248.25ZM1184.74 274.364C1182.79 274.364 1181.12 274.114 1179.72 273.614C1178.33 273.125 1177.16 272.477 1176.23 271.67C1175.31 270.875 1174.58 270.023 1174.03 269.114L1177.24 266.864C1177.6 267.341 1178.06 267.886 1178.62 268.5C1179.17 269.125 1179.93 269.665 1180.9 270.119C1181.88 270.585 1183.16 270.818 1184.74 270.818C1186.85 270.818 1188.59 270.307 1189.97 269.284C1191.34 268.261 1192.03 266.659 1192.03 264.477V259.159H1191.69C1191.39 259.636 1190.97 260.227 1190.43 260.932C1189.89 261.625 1189.12 262.244 1188.11 262.79C1187.11 263.324 1185.76 263.591 1184.05 263.591C1181.94 263.591 1180.04 263.091 1178.36 262.091C1176.69 261.091 1175.37 259.636 1174.39 257.727C1173.42 255.818 1172.94 253.5 1172.94 250.773C1172.94 248.091 1173.41 245.756 1174.35 243.767C1175.3 241.767 1176.61 240.222 1178.29 239.131C1179.97 238.028 1181.92 237.477 1184.12 237.477C1185.83 237.477 1187.18 237.761 1188.18 238.33C1189.19 238.886 1189.96 239.523 1190.5 240.239C1191.04 240.943 1191.46 241.523 1191.76 241.977H1192.17V237.818H1196.05V264.75C1196.05 267 1195.54 268.83 1194.52 270.239C1193.51 271.659 1192.14 272.699 1190.43 273.358C1188.72 274.028 1186.83 274.364 1184.74 274.364ZM1184.6 259.977C1186.21 259.977 1187.58 259.608 1188.69 258.869C1189.8 258.131 1190.65 257.068 1191.23 255.682C1191.81 254.295 1192.1 252.636 1192.1 250.705C1192.1 248.818 1191.82 247.153 1191.25 245.71C1190.68 244.267 1189.84 243.136 1188.72 242.318C1187.61 241.5 1186.24 241.091 1184.6 241.091C1182.89 241.091 1181.47 241.523 1180.34 242.386C1179.21 243.25 1178.37 244.409 1177.8 245.864C1177.24 247.318 1176.96 248.932 1176.96 250.705C1176.96 252.523 1177.25 254.131 1177.82 255.528C1178.39 256.915 1179.25 258.006 1180.37 258.801C1181.51 259.585 1182.92 259.977 1184.6 259.977ZM1220.88 253.295V237.818H1224.9V264H1220.88V259.568H1220.6C1219.99 260.898 1219.04 262.028 1217.74 262.96C1216.45 263.881 1214.81 264.341 1212.83 264.341C1211.2 264.341 1209.74 263.983 1208.47 263.267C1207.2 262.54 1206.2 261.449 1205.47 259.994C1204.74 258.528 1204.38 256.682 1204.38 254.455V237.818H1208.4V254.182C1208.4 256.091 1208.93 257.614 1210 258.75C1211.08 259.886 1212.46 260.455 1214.13 260.455C1215.13 260.455 1216.14 260.199 1217.18 259.688C1218.22 259.176 1219.1 258.392 1219.8 257.335C1220.52 256.278 1220.88 254.932 1220.88 253.295ZM1240.93 264.614C1239.27 264.614 1237.77 264.301 1236.42 263.676C1235.06 263.04 1233.99 262.125 1233.19 260.932C1232.4 259.727 1232 258.273 1232 256.568C1232 255.068 1232.3 253.852 1232.89 252.92C1233.48 251.977 1234.27 251.239 1235.26 250.705C1236.25 250.17 1237.34 249.773 1238.53 249.511C1239.73 249.239 1240.94 249.023 1242.16 248.864C1243.75 248.659 1245.04 248.506 1246.03 248.403C1247.03 248.29 1247.76 248.102 1248.21 247.841C1248.68 247.58 1248.91 247.125 1248.91 246.477V246.341C1248.91 244.659 1248.45 243.352 1247.53 242.42C1246.62 241.489 1245.24 241.023 1243.39 241.023C1241.47 241.023 1239.96 241.443 1238.87 242.284C1237.78 243.125 1237.01 244.023 1236.57 244.977L1232.75 243.614C1233.43 242.023 1234.34 240.784 1235.48 239.898C1236.63 239 1237.88 238.375 1239.23 238.023C1240.59 237.659 1241.93 237.477 1243.25 237.477C1244.09 237.477 1245.06 237.58 1246.15 237.784C1247.25 237.977 1248.31 238.381 1249.34 238.994C1250.37 239.608 1251.23 240.534 1251.91 241.773C1252.59 243.011 1252.93 244.67 1252.93 246.75V264H1248.91V260.455H1248.71C1248.43 261.023 1247.98 261.631 1247.34 262.278C1246.71 262.926 1245.86 263.477 1244.8 263.932C1243.75 264.386 1242.46 264.614 1240.93 264.614ZM1241.55 261C1243.14 261 1244.48 260.688 1245.57 260.062C1246.67 259.438 1247.5 258.631 1248.06 257.642C1248.63 256.653 1248.91 255.614 1248.91 254.523V250.841C1248.74 251.045 1248.36 251.233 1247.78 251.403C1247.22 251.562 1246.56 251.705 1245.81 251.83C1245.07 251.943 1244.35 252.045 1243.64 252.136C1242.95 252.216 1242.39 252.284 1241.96 252.341C1240.91 252.477 1239.93 252.699 1239.02 253.006C1238.13 253.301 1237.4 253.75 1236.84 254.352C1236.3 254.943 1236.02 255.75 1236.02 256.773C1236.02 258.17 1236.54 259.227 1237.57 259.943C1238.62 260.648 1239.94 261 1241.55 261ZM1271.8 274.364C1269.86 274.364 1268.19 274.114 1266.79 273.614C1265.39 273.125 1264.23 272.477 1263.3 271.67C1262.38 270.875 1261.64 270.023 1261.1 269.114L1264.3 266.864C1264.67 267.341 1265.13 267.886 1265.68 268.5C1266.24 269.125 1267 269.665 1267.97 270.119C1268.95 270.585 1270.22 270.818 1271.8 270.818C1273.92 270.818 1275.66 270.307 1277.04 269.284C1278.41 268.261 1279.1 266.659 1279.1 264.477V259.159H1278.76C1278.46 259.636 1278.04 260.227 1277.5 260.932C1276.96 261.625 1276.19 262.244 1275.18 262.79C1274.18 263.324 1272.83 263.591 1271.12 263.591C1269.01 263.591 1267.11 263.091 1265.43 262.091C1263.76 261.091 1262.43 259.636 1261.46 257.727C1260.49 255.818 1260.01 253.5 1260.01 250.773C1260.01 248.091 1260.48 245.756 1261.42 243.767C1262.37 241.767 1263.68 240.222 1265.36 239.131C1267.04 238.028 1268.99 237.477 1271.19 237.477C1272.89 237.477 1274.25 237.761 1275.25 238.33C1276.26 238.886 1277.03 239.523 1277.56 240.239C1278.11 240.943 1278.53 241.523 1278.83 241.977H1279.24V237.818H1283.12V264.75C1283.12 267 1282.61 268.83 1281.59 270.239C1280.58 271.659 1279.21 272.699 1277.5 273.358C1275.79 274.028 1273.89 274.364 1271.8 274.364ZM1271.67 259.977C1273.28 259.977 1274.64 259.608 1275.76 258.869C1276.87 258.131 1277.72 257.068 1278.3 255.682C1278.88 254.295 1279.17 252.636 1279.17 250.705C1279.17 248.818 1278.88 247.153 1278.31 245.71C1277.75 244.267 1276.91 243.136 1275.79 242.318C1274.68 241.5 1273.3 241.091 1271.67 241.091C1269.96 241.091 1268.54 241.523 1267.41 242.386C1266.28 243.25 1265.43 244.409 1264.87 245.864C1264.31 247.318 1264.03 248.932 1264.03 250.705C1264.03 252.523 1264.31 254.131 1264.88 255.528C1265.46 256.915 1266.31 258.006 1267.44 258.801C1268.58 259.585 1269.99 259.977 1271.67 259.977ZM1302.42 264.545C1299.9 264.545 1297.72 263.989 1295.89 262.875C1294.08 261.75 1292.67 260.182 1291.68 258.17C1290.71 256.148 1290.22 253.795 1290.22 251.114C1290.22 248.432 1290.71 246.068 1291.68 244.023C1292.67 241.966 1294.05 240.364 1295.81 239.216C1297.58 238.057 1299.65 237.477 1302.01 237.477C1303.38 237.477 1304.72 237.705 1306.05 238.159C1307.38 238.614 1308.59 239.352 1309.68 240.375C1310.77 241.386 1311.64 242.727 1312.29 244.398C1312.94 246.068 1313.26 248.125 1313.26 250.568V252.273H1293.08V248.795H1309.17C1309.17 247.318 1308.88 246 1308.29 244.841C1307.71 243.682 1306.88 242.767 1305.8 242.097C1304.73 241.426 1303.47 241.091 1302.01 241.091C1300.41 241.091 1299.02 241.489 1297.85 242.284C1296.7 243.068 1295.8 244.091 1295.18 245.352C1294.55 246.614 1294.24 247.966 1294.24 249.409V251.727C1294.24 253.705 1294.58 255.381 1295.26 256.756C1295.96 258.119 1296.92 259.159 1298.14 259.875C1299.37 260.58 1300.8 260.932 1302.42 260.932C1303.48 260.932 1304.43 260.784 1305.29 260.489C1306.15 260.182 1306.89 259.727 1307.52 259.125C1308.14 258.511 1308.63 257.75 1308.97 256.841L1312.85 257.932C1312.45 259.25 1311.76 260.409 1310.79 261.409C1309.83 262.398 1308.63 263.17 1307.21 263.727C1305.79 264.273 1304.2 264.545 1302.42 264.545ZM211.809 322V287.091H224.014C226.446 287.091 228.452 287.511 230.031 288.352C231.611 289.182 232.787 290.301 233.559 291.71C234.332 293.108 234.719 294.659 234.719 296.364C234.719 297.864 234.452 299.102 233.917 300.08C233.395 301.057 232.702 301.83 231.838 302.398C230.986 302.966 230.059 303.386 229.059 303.659V304C230.128 304.068 231.202 304.443 232.281 305.125C233.361 305.807 234.264 306.784 234.991 308.057C235.719 309.33 236.082 310.886 236.082 312.727C236.082 314.477 235.684 316.051 234.889 317.449C234.094 318.847 232.838 319.955 231.122 320.773C229.406 321.591 227.173 322 224.423 322H211.809ZM216.037 318.25H224.423C227.184 318.25 229.145 317.716 230.304 316.648C231.474 315.568 232.059 314.261 232.059 312.727C232.059 311.545 231.758 310.455 231.156 309.455C230.554 308.443 229.696 307.636 228.582 307.034C227.469 306.42 226.15 306.114 224.628 306.114H216.037V318.25ZM216.037 302.432H223.878C225.15 302.432 226.298 302.182 227.321 301.682C228.355 301.182 229.173 300.477 229.775 299.568C230.389 298.659 230.696 297.591 230.696 296.364C230.696 294.83 230.162 293.528 229.094 292.46C228.025 291.381 226.332 290.841 224.014 290.841H216.037V302.432ZM259.943 311.295V295.818H263.966V322H259.943V317.568H259.67C259.056 318.898 258.102 320.028 256.806 320.96C255.511 321.881 253.875 322.341 251.897 322.341C250.261 322.341 248.806 321.983 247.534 321.267C246.261 320.54 245.261 319.449 244.534 317.994C243.806 316.528 243.443 314.682 243.443 312.455V295.818H247.466V312.182C247.466 314.091 248 315.614 249.068 316.75C250.147 317.886 251.522 318.455 253.193 318.455C254.193 318.455 255.21 318.199 256.244 317.688C257.289 317.176 258.164 316.392 258.869 315.335C259.585 314.278 259.943 312.932 259.943 311.295ZM274.884 331.818C274.202 331.818 273.595 331.761 273.06 331.648C272.526 331.545 272.157 331.443 271.952 331.341L272.975 327.795C273.952 328.045 274.816 328.136 275.566 328.068C276.316 328 276.981 327.665 277.56 327.062C278.151 326.472 278.691 325.511 279.18 324.182L279.93 322.136L270.248 295.818H274.612L281.839 316.682H282.112L289.339 295.818H293.702L282.589 325.818C282.089 327.17 281.47 328.29 280.731 329.176C279.992 330.074 279.134 330.739 278.157 331.17C277.191 331.602 276.1 331.818 274.884 331.818ZM309.594 285.455L298.344 327.25H294.663L305.913 285.455H309.594ZM334.959 295.818C334.755 294.091 333.925 292.75 332.471 291.795C331.016 290.841 329.232 290.364 327.118 290.364C325.573 290.364 324.221 290.614 323.061 291.114C321.914 291.614 321.016 292.301 320.368 293.176C319.732 294.051 319.414 295.045 319.414 296.159C319.414 297.091 319.635 297.892 320.078 298.562C320.533 299.222 321.113 299.773 321.817 300.216C322.522 300.648 323.26 301.006 324.033 301.29C324.806 301.562 325.516 301.784 326.164 301.955L329.709 302.909C330.618 303.148 331.63 303.477 332.743 303.898C333.868 304.318 334.942 304.892 335.965 305.619C336.999 306.335 337.851 307.256 338.522 308.381C339.192 309.506 339.527 310.886 339.527 312.523C339.527 314.409 339.033 316.114 338.044 317.636C337.067 319.159 335.635 320.369 333.749 321.267C331.874 322.165 329.596 322.614 326.914 322.614C324.414 322.614 322.249 322.21 320.419 321.403C318.601 320.597 317.169 319.472 316.124 318.028C315.09 316.585 314.505 314.909 314.368 313H318.732C318.846 314.318 319.289 315.409 320.061 316.273C320.846 317.125 321.834 317.761 323.027 318.182C324.232 318.591 325.527 318.795 326.914 318.795C328.527 318.795 329.976 318.534 331.26 318.011C332.544 317.477 333.561 316.739 334.311 315.795C335.061 314.841 335.436 313.727 335.436 312.455C335.436 311.295 335.113 310.352 334.465 309.625C333.817 308.898 332.965 308.307 331.908 307.852C330.851 307.398 329.709 307 328.482 306.659L324.186 305.432C321.459 304.648 319.3 303.528 317.709 302.074C316.118 300.619 315.323 298.716 315.323 296.364C315.323 294.409 315.851 292.705 316.908 291.25C317.976 289.784 319.408 288.648 321.203 287.841C323.01 287.023 325.027 286.614 327.255 286.614C329.505 286.614 331.505 287.017 333.255 287.824C335.005 288.619 336.391 289.71 337.414 291.097C338.448 292.483 338.993 294.057 339.05 295.818H334.959ZM357.869 322.545C355.347 322.545 353.171 321.989 351.341 320.875C349.523 319.75 348.119 318.182 347.131 316.17C346.154 314.148 345.665 311.795 345.665 309.114C345.665 306.432 346.154 304.068 347.131 302.023C348.119 299.966 349.494 298.364 351.256 297.216C353.029 296.057 355.097 295.477 357.46 295.477C358.824 295.477 360.171 295.705 361.5 296.159C362.83 296.614 364.04 297.352 365.131 298.375C366.222 299.386 367.091 300.727 367.739 302.398C368.386 304.068 368.71 306.125 368.71 308.568V310.273H348.529V306.795H364.619C364.619 305.318 364.324 304 363.733 302.841C363.154 301.682 362.324 300.767 361.244 300.097C360.176 299.426 358.915 299.091 357.46 299.091C355.858 299.091 354.472 299.489 353.301 300.284C352.142 301.068 351.25 302.091 350.625 303.352C350 304.614 349.688 305.966 349.688 307.409V309.727C349.688 311.705 350.029 313.381 350.71 314.756C351.404 316.119 352.364 317.159 353.591 317.875C354.818 318.58 356.244 318.932 357.869 318.932C358.926 318.932 359.881 318.784 360.733 318.489C361.597 318.182 362.341 317.727 362.966 317.125C363.591 316.511 364.074 315.75 364.415 314.841L368.301 315.932C367.892 317.25 367.205 318.409 366.239 319.409C365.273 320.398 364.08 321.17 362.659 321.727C361.239 322.273 359.642 322.545 357.869 322.545ZM379.812 287.091V322H375.79V287.091H379.812ZM392.163 287.091V322H388.14V287.091H392.163ZM412.832 285.455L401.582 327.25H397.9L409.15 285.455H412.832ZM417.197 290.841V287.091H443.378V290.841H432.401V322H428.174V290.841H417.197ZM447.598 322V295.818H451.485V299.773H451.758C452.235 298.477 453.098 297.426 454.348 296.619C455.598 295.812 457.008 295.409 458.576 295.409C458.871 295.409 459.24 295.415 459.684 295.426C460.127 295.437 460.462 295.455 460.689 295.477V299.568C460.553 299.534 460.24 299.483 459.752 299.415C459.275 299.335 458.769 299.295 458.235 299.295C456.962 299.295 455.826 299.562 454.826 300.097C453.837 300.619 453.053 301.347 452.473 302.278C451.905 303.199 451.621 304.25 451.621 305.432V322H447.598ZM474.122 322.614C472.463 322.614 470.958 322.301 469.605 321.676C468.253 321.04 467.179 320.125 466.384 318.932C465.588 317.727 465.191 316.273 465.191 314.568C465.191 313.068 465.486 311.852 466.077 310.92C466.668 309.977 467.458 309.239 468.446 308.705C469.435 308.17 470.526 307.773 471.719 307.511C472.923 307.239 474.134 307.023 475.35 306.864C476.941 306.659 478.23 306.506 479.219 306.403C480.219 306.29 480.946 306.102 481.401 305.841C481.867 305.58 482.1 305.125 482.1 304.477V304.341C482.1 302.659 481.639 301.352 480.719 300.42C479.81 299.489 478.429 299.023 476.577 299.023C474.656 299.023 473.151 299.443 472.06 300.284C470.969 301.125 470.202 302.023 469.759 302.977L465.941 301.614C466.622 300.023 467.531 298.784 468.668 297.898C469.816 297 471.066 296.375 472.418 296.023C473.781 295.659 475.122 295.477 476.441 295.477C477.281 295.477 478.247 295.58 479.338 295.784C480.441 295.977 481.503 296.381 482.526 296.994C483.56 297.608 484.418 298.534 485.1 299.773C485.781 301.011 486.122 302.67 486.122 304.75V322H482.1V318.455H481.895C481.622 319.023 481.168 319.631 480.531 320.278C479.895 320.926 479.048 321.477 477.992 321.932C476.935 322.386 475.645 322.614 474.122 322.614ZM474.736 319C476.327 319 477.668 318.688 478.759 318.062C479.861 317.438 480.691 316.631 481.247 315.642C481.816 314.653 482.1 313.614 482.1 312.523V308.841C481.929 309.045 481.554 309.233 480.975 309.403C480.406 309.562 479.747 309.705 478.997 309.83C478.259 309.943 477.537 310.045 476.833 310.136C476.139 310.216 475.577 310.284 475.145 310.341C474.1 310.477 473.122 310.699 472.213 311.006C471.316 311.301 470.588 311.75 470.031 312.352C469.486 312.943 469.213 313.75 469.213 314.773C469.213 316.17 469.73 317.227 470.764 317.943C471.81 318.648 473.134 319 474.736 319ZM504.311 322.545C502.129 322.545 500.203 321.994 498.533 320.892C496.862 319.778 495.555 318.21 494.612 316.188C493.669 314.153 493.197 311.75 493.197 308.977C493.197 306.227 493.669 303.841 494.612 301.818C495.555 299.795 496.868 298.233 498.55 297.131C500.231 296.028 502.175 295.477 504.379 295.477C506.084 295.477 507.43 295.761 508.419 296.33C509.419 296.886 510.18 297.523 510.703 298.239C511.237 298.943 511.652 299.523 511.947 299.977H512.288V287.091H516.311V322H512.425V317.977H511.947C511.652 318.455 511.231 319.057 510.686 319.784C510.141 320.5 509.362 321.142 508.351 321.71C507.339 322.267 505.993 322.545 504.311 322.545ZM504.856 318.932C506.47 318.932 507.834 318.511 508.947 317.67C510.061 316.818 510.908 315.642 511.487 314.142C512.067 312.631 512.356 310.886 512.356 308.909C512.356 306.955 512.072 305.244 511.504 303.778C510.936 302.301 510.095 301.153 508.981 300.335C507.868 299.506 506.493 299.091 504.856 299.091C503.152 299.091 501.731 299.528 500.595 300.403C499.47 301.267 498.624 302.443 498.055 303.932C497.499 305.409 497.22 307.068 497.22 308.909C497.22 310.773 497.504 312.466 498.072 313.989C498.652 315.5 499.504 316.705 500.629 317.602C501.766 318.489 503.175 318.932 504.856 318.932ZM536.174 322.545C533.652 322.545 531.476 321.989 529.646 320.875C527.828 319.75 526.424 318.182 525.436 316.17C524.459 314.148 523.97 311.795 523.97 309.114C523.97 306.432 524.459 304.068 525.436 302.023C526.424 299.966 527.799 298.364 529.561 297.216C531.334 296.057 533.402 295.477 535.765 295.477C537.129 295.477 538.476 295.705 539.805 296.159C541.135 296.614 542.345 297.352 543.436 298.375C544.527 299.386 545.396 300.727 546.044 302.398C546.691 304.068 547.015 306.125 547.015 308.568V310.273H526.834V306.795H542.924C542.924 305.318 542.629 304 542.038 302.841C541.459 301.682 540.629 300.767 539.549 300.097C538.481 299.426 537.22 299.091 535.765 299.091C534.163 299.091 532.777 299.489 531.606 300.284C530.447 301.068 529.555 302.091 528.93 303.352C528.305 304.614 527.993 305.966 527.993 307.409V309.727C527.993 311.705 528.334 313.381 529.015 314.756C529.709 316.119 530.669 317.159 531.896 317.875C533.123 318.58 534.549 318.932 536.174 318.932C537.231 318.932 538.186 318.784 539.038 318.489C539.902 318.182 540.646 317.727 541.271 317.125C541.896 316.511 542.379 315.75 542.72 314.841L546.606 315.932C546.197 317.25 545.51 318.409 544.544 319.409C543.578 320.398 542.385 321.17 540.964 321.727C539.544 322.273 537.947 322.545 536.174 322.545ZM579.873 322H569.1V287.091H580.35C583.736 287.091 586.634 287.79 589.043 289.188C591.452 290.574 593.299 292.568 594.583 295.17C595.867 297.761 596.509 300.864 596.509 304.477C596.509 308.114 595.861 311.244 594.566 313.869C593.271 316.483 591.384 318.494 588.907 319.903C586.43 321.301 583.418 322 579.873 322ZM573.327 318.25H579.6C582.486 318.25 584.879 317.693 586.776 316.58C588.674 315.466 590.089 313.881 591.021 311.824C591.952 309.767 592.418 307.318 592.418 304.477C592.418 301.659 591.958 299.233 591.038 297.199C590.117 295.153 588.742 293.585 586.913 292.494C585.083 291.392 582.805 290.841 580.077 290.841H573.327V318.25ZM604.015 322V295.818H608.037V322H604.015ZM606.06 291.455C605.276 291.455 604.6 291.188 604.032 290.653C603.475 290.119 603.196 289.477 603.196 288.727C603.196 287.977 603.475 287.335 604.032 286.801C604.6 286.267 605.276 286 606.06 286C606.844 286 607.515 286.267 608.071 286.801C608.64 287.335 608.924 287.977 608.924 288.727C608.924 289.477 608.64 290.119 608.071 290.653C607.515 291.188 606.844 291.455 606.06 291.455ZM616.365 322V295.818H620.252V299.773H620.524C621.002 298.477 621.865 297.426 623.115 296.619C624.365 295.812 625.774 295.409 627.343 295.409C627.638 295.409 628.007 295.415 628.451 295.426C628.894 295.437 629.229 295.455 629.456 295.477V299.568C629.32 299.534 629.007 299.483 628.519 299.415C628.041 299.335 627.536 299.295 627.002 299.295C625.729 299.295 624.593 299.562 623.593 300.097C622.604 300.619 621.82 301.347 621.24 302.278C620.672 303.199 620.388 304.25 620.388 305.432V322H616.365ZM645.365 322.545C642.842 322.545 640.666 321.989 638.837 320.875C637.018 319.75 635.615 318.182 634.626 316.17C633.649 314.148 633.16 311.795 633.16 309.114C633.16 306.432 633.649 304.068 634.626 302.023C635.615 299.966 636.99 298.364 638.751 297.216C640.524 296.057 642.592 295.477 644.956 295.477C646.32 295.477 647.666 295.705 648.996 296.159C650.325 296.614 651.535 297.352 652.626 298.375C653.717 299.386 654.587 300.727 655.234 302.398C655.882 304.068 656.206 306.125 656.206 308.568V310.273H636.024V306.795H652.115C652.115 305.318 651.82 304 651.229 302.841C650.649 301.682 649.82 300.767 648.74 300.097C647.672 299.426 646.41 299.091 644.956 299.091C643.354 299.091 641.967 299.489 640.797 300.284C639.638 301.068 638.746 302.091 638.121 303.352C637.496 304.614 637.183 305.966 637.183 307.409V309.727C637.183 311.705 637.524 313.381 638.206 314.756C638.899 316.119 639.859 317.159 641.087 317.875C642.314 318.58 643.74 318.932 645.365 318.932C646.422 318.932 647.376 318.784 648.229 318.489C649.092 318.182 649.837 317.727 650.462 317.125C651.087 316.511 651.57 315.75 651.91 314.841L655.797 315.932C655.388 317.25 654.7 318.409 653.734 319.409C652.768 320.398 651.575 321.17 650.155 321.727C648.734 322.273 647.138 322.545 645.365 322.545ZM673.922 322.545C671.467 322.545 669.353 321.966 667.581 320.807C665.808 319.648 664.444 318.051 663.49 316.017C662.535 313.983 662.058 311.659 662.058 309.045C662.058 306.386 662.547 304.04 663.524 302.006C664.513 299.96 665.888 298.364 667.649 297.216C669.422 296.057 671.49 295.477 673.853 295.477C675.694 295.477 677.353 295.818 678.831 296.5C680.308 297.182 681.518 298.136 682.461 299.364C683.405 300.591 683.99 302.023 684.217 303.659H680.194C679.888 302.466 679.206 301.409 678.149 300.489C677.103 299.557 675.694 299.091 673.922 299.091C672.353 299.091 670.978 299.5 669.797 300.318C668.626 301.125 667.711 302.267 667.052 303.744C666.405 305.21 666.081 306.932 666.081 308.909C666.081 310.932 666.399 312.693 667.035 314.193C667.683 315.693 668.592 316.858 669.763 317.688C670.944 318.517 672.331 318.932 673.922 318.932C674.967 318.932 675.916 318.75 676.768 318.386C677.621 318.023 678.342 317.5 678.933 316.818C679.524 316.136 679.944 315.318 680.194 314.364H684.217C683.99 315.909 683.427 317.301 682.53 318.54C681.643 319.767 680.467 320.744 679.001 321.472C677.547 322.188 675.853 322.545 673.922 322.545ZM702.444 295.818V299.227H688.876V295.818H702.444ZM692.831 289.545H696.853V314.5C696.853 315.636 697.018 316.489 697.348 317.057C697.688 317.614 698.12 317.989 698.643 318.182C699.177 318.364 699.74 318.455 700.331 318.455C700.774 318.455 701.137 318.432 701.421 318.386C701.706 318.33 701.933 318.284 702.103 318.25L702.921 321.864C702.649 321.966 702.268 322.068 701.779 322.17C701.291 322.284 700.671 322.341 699.921 322.341C698.785 322.341 697.671 322.097 696.581 321.608C695.501 321.119 694.603 320.375 693.887 319.375C693.183 318.375 692.831 317.114 692.831 315.591V289.545ZM714.04 287.091V322H710.018V287.091H714.04ZM724.959 331.818C724.277 331.818 723.67 331.761 723.135 331.648C722.601 331.545 722.232 331.443 722.027 331.341L723.05 327.795C724.027 328.045 724.891 328.136 725.641 328.068C726.391 328 727.056 327.665 727.635 327.062C728.226 326.472 728.766 325.511 729.255 324.182L730.005 322.136L720.323 295.818H724.687L731.914 316.682H732.187L739.414 295.818H743.777L732.664 325.818C732.164 327.17 731.545 328.29 730.806 329.176C730.067 330.074 729.209 330.739 728.232 331.17C727.266 331.602 726.175 331.818 724.959 331.818ZM776.166 295.818V299.227H762.053V295.818H776.166ZM766.28 322V292.205C766.28 290.705 766.632 289.455 767.337 288.455C768.041 287.455 768.956 286.705 770.081 286.205C771.206 285.705 772.393 285.455 773.643 285.455C774.632 285.455 775.439 285.534 776.064 285.693C776.689 285.852 777.155 286 777.462 286.136L776.303 289.614C776.098 289.545 775.814 289.46 775.45 289.358C775.098 289.256 774.632 289.205 774.053 289.205C772.723 289.205 771.763 289.54 771.172 290.21C770.592 290.881 770.303 291.864 770.303 293.159V322H766.28ZM782.764 322V295.818H786.65V299.773H786.923C787.4 298.477 788.264 297.426 789.514 296.619C790.764 295.812 792.173 295.409 793.741 295.409C794.037 295.409 794.406 295.415 794.849 295.426C795.292 295.437 795.628 295.455 795.855 295.477V299.568C795.719 299.534 795.406 299.483 794.917 299.415C794.44 299.335 793.934 299.295 793.4 299.295C792.128 299.295 790.991 299.562 789.991 300.097C789.003 300.619 788.219 301.347 787.639 302.278C787.071 303.199 786.787 304.25 786.787 305.432V322H782.764ZM811.423 322.545C809.059 322.545 806.985 321.983 805.201 320.858C803.429 319.733 802.042 318.159 801.042 316.136C800.054 314.114 799.559 311.75 799.559 309.045C799.559 306.318 800.054 303.937 801.042 301.903C802.042 299.869 803.429 298.29 805.201 297.165C806.985 296.04 809.059 295.477 811.423 295.477C813.787 295.477 815.855 296.04 817.627 297.165C819.412 298.29 820.798 299.869 821.787 301.903C822.787 303.937 823.287 306.318 823.287 309.045C823.287 311.75 822.787 314.114 821.787 316.136C820.798 318.159 819.412 319.733 817.627 320.858C815.855 321.983 813.787 322.545 811.423 322.545ZM811.423 318.932C813.218 318.932 814.696 318.472 815.855 317.551C817.014 316.631 817.872 315.42 818.429 313.92C818.985 312.42 819.264 310.795 819.264 309.045C819.264 307.295 818.985 305.665 818.429 304.153C817.872 302.642 817.014 301.42 815.855 300.489C814.696 299.557 813.218 299.091 811.423 299.091C809.627 299.091 808.15 299.557 806.991 300.489C805.832 301.42 804.974 302.642 804.417 304.153C803.86 305.665 803.582 307.295 803.582 309.045C803.582 310.795 803.86 312.42 804.417 313.92C804.974 315.42 805.832 316.631 806.991 317.551C808.15 318.472 809.627 318.932 811.423 318.932ZM830.387 322V295.818H834.274V299.909H834.614C835.16 298.511 836.041 297.426 837.256 296.653C838.472 295.869 839.933 295.477 841.637 295.477C843.364 295.477 844.802 295.869 845.95 296.653C847.109 297.426 848.012 298.511 848.66 299.909H848.933C849.603 298.557 850.609 297.483 851.95 296.688C853.291 295.881 854.899 295.477 856.774 295.477C859.114 295.477 861.029 296.21 862.518 297.676C864.006 299.131 864.751 301.398 864.751 304.477V322H860.728V304.477C860.728 302.545 860.2 301.165 859.143 300.335C858.086 299.506 856.842 299.091 855.41 299.091C853.569 299.091 852.143 299.648 851.131 300.761C850.12 301.864 849.614 303.261 849.614 304.955V322H845.524V304.068C845.524 302.58 845.041 301.381 844.075 300.472C843.109 299.551 841.864 299.091 840.342 299.091C839.296 299.091 838.319 299.369 837.41 299.926C836.512 300.483 835.785 301.256 835.228 302.244C834.683 303.222 834.41 304.352 834.41 305.636V322H830.387ZM907.162 295.818C906.958 294.091 906.128 292.75 904.674 291.795C903.219 290.841 901.435 290.364 899.321 290.364C897.776 290.364 896.424 290.614 895.265 291.114C894.117 291.614 893.219 292.301 892.571 293.176C891.935 294.051 891.617 295.045 891.617 296.159C891.617 297.091 891.838 297.892 892.282 298.562C892.736 299.222 893.316 299.773 894.02 300.216C894.725 300.648 895.463 301.006 896.236 301.29C897.009 301.562 897.719 301.784 898.367 301.955L901.912 302.909C902.821 303.148 903.833 303.477 904.946 303.898C906.071 304.318 907.145 304.892 908.168 305.619C909.202 306.335 910.054 307.256 910.725 308.381C911.395 309.506 911.73 310.886 911.73 312.523C911.73 314.409 911.236 316.114 910.248 317.636C909.27 319.159 907.838 320.369 905.952 321.267C904.077 322.165 901.799 322.614 899.117 322.614C896.617 322.614 894.452 322.21 892.623 321.403C890.804 320.597 889.373 319.472 888.327 318.028C887.293 316.585 886.708 314.909 886.571 313H890.935C891.049 314.318 891.492 315.409 892.265 316.273C893.049 317.125 894.037 317.761 895.23 318.182C896.435 318.591 897.73 318.795 899.117 318.795C900.73 318.795 902.179 318.534 903.463 318.011C904.748 317.477 905.765 316.739 906.515 315.795C907.265 314.841 907.64 313.727 907.64 312.455C907.64 311.295 907.316 310.352 906.668 309.625C906.02 308.898 905.168 308.307 904.111 307.852C903.054 307.398 901.912 307 900.685 306.659L896.39 305.432C893.662 304.648 891.503 303.528 889.912 302.074C888.321 300.619 887.526 298.716 887.526 296.364C887.526 294.409 888.054 292.705 889.111 291.25C890.179 289.784 891.611 288.648 893.407 287.841C895.213 287.023 897.23 286.614 899.458 286.614C901.708 286.614 903.708 287.017 905.458 287.824C907.208 288.619 908.594 289.71 909.617 291.097C910.651 292.483 911.196 294.057 911.253 295.818H907.162ZM930.073 322.545C927.55 322.545 925.374 321.989 923.544 320.875C921.726 319.75 920.323 318.182 919.334 316.17C918.357 314.148 917.868 311.795 917.868 309.114C917.868 306.432 918.357 304.068 919.334 302.023C920.323 299.966 921.698 298.364 923.459 297.216C925.232 296.057 927.3 295.477 929.663 295.477C931.027 295.477 932.374 295.705 933.703 296.159C935.033 296.614 936.243 297.352 937.334 298.375C938.425 299.386 939.294 300.727 939.942 302.398C940.59 304.068 940.913 306.125 940.913 308.568V310.273H920.732V306.795H936.823C936.823 305.318 936.527 304 935.936 302.841C935.357 301.682 934.527 300.767 933.448 300.097C932.379 299.426 931.118 299.091 929.663 299.091C928.061 299.091 926.675 299.489 925.504 300.284C924.345 301.068 923.453 302.091 922.828 303.352C922.203 304.614 921.891 305.966 921.891 307.409V309.727C921.891 311.705 922.232 313.381 922.913 314.756C923.607 316.119 924.567 317.159 925.794 317.875C927.021 318.58 928.448 318.932 930.073 318.932C931.129 318.932 932.084 318.784 932.936 318.489C933.8 318.182 934.544 317.727 935.169 317.125C935.794 316.511 936.277 315.75 936.618 314.841L940.504 315.932C940.095 317.25 939.408 318.409 938.442 319.409C937.476 320.398 936.283 321.17 934.862 321.727C933.442 322.273 931.845 322.545 930.073 322.545ZM955.697 322.614C954.038 322.614 952.533 322.301 951.18 321.676C949.828 321.04 948.754 320.125 947.959 318.932C947.163 317.727 946.766 316.273 946.766 314.568C946.766 313.068 947.061 311.852 947.652 310.92C948.243 309.977 949.033 309.239 950.021 308.705C951.01 308.17 952.101 307.773 953.294 307.511C954.498 307.239 955.709 307.023 956.925 306.864C958.516 306.659 959.805 306.506 960.794 306.403C961.794 306.29 962.521 306.102 962.976 305.841C963.442 305.58 963.675 305.125 963.675 304.477V304.341C963.675 302.659 963.214 301.352 962.294 300.42C961.385 299.489 960.004 299.023 958.152 299.023C956.231 299.023 954.726 299.443 953.635 300.284C952.544 301.125 951.777 302.023 951.334 302.977L947.516 301.614C948.197 300.023 949.106 298.784 950.243 297.898C951.391 297 952.641 296.375 953.993 296.023C955.356 295.659 956.697 295.477 958.016 295.477C958.856 295.477 959.822 295.58 960.913 295.784C962.016 295.977 963.078 296.381 964.101 296.994C965.135 297.608 965.993 298.534 966.675 299.773C967.356 301.011 967.697 302.67 967.697 304.75V322H963.675V318.455H963.47C963.197 319.023 962.743 319.631 962.106 320.278C961.47 320.926 960.623 321.477 959.567 321.932C958.51 322.386 957.22 322.614 955.697 322.614ZM956.311 319C957.902 319 959.243 318.688 960.334 318.062C961.436 317.438 962.266 316.631 962.822 315.642C963.391 314.653 963.675 313.614 963.675 312.523V308.841C963.504 309.045 963.129 309.233 962.55 309.403C961.981 309.562 961.322 309.705 960.572 309.83C959.834 309.943 959.112 310.045 958.408 310.136C957.714 310.216 957.152 310.284 956.72 310.341C955.675 310.477 954.697 310.699 953.788 311.006C952.891 311.301 952.163 311.75 951.606 312.352C951.061 312.943 950.788 313.75 950.788 314.773C950.788 316.17 951.305 317.227 952.339 317.943C953.385 318.648 954.709 319 956.311 319ZM976 322V295.818H979.886V299.773H980.159C980.636 298.477 981.5 297.426 982.75 296.619C984 295.812 985.409 295.409 986.977 295.409C987.272 295.409 987.642 295.415 988.085 295.426C988.528 295.437 988.863 295.455 989.091 295.477V299.568C988.954 299.534 988.642 299.483 988.153 299.415C987.676 299.335 987.17 299.295 986.636 299.295C985.363 299.295 984.227 299.562 983.227 300.097C982.238 300.619 981.454 301.347 980.875 302.278C980.306 303.199 980.022 304.25 980.022 305.432V322H976ZM1004.66 322.545C1002.2 322.545 1000.09 321.966 998.318 320.807C996.545 319.648 995.181 318.051 994.227 316.017C993.272 313.983 992.795 311.659 992.795 309.045C992.795 306.386 993.284 304.04 994.261 302.006C995.249 299.96 996.624 298.364 998.386 297.216C1000.16 296.057 1002.23 295.477 1004.59 295.477C1006.43 295.477 1008.09 295.818 1009.57 296.5C1011.04 297.182 1012.26 298.136 1013.2 299.364C1014.14 300.591 1014.73 302.023 1014.95 303.659H1010.93C1010.62 302.466 1009.94 301.409 1008.89 300.489C1007.84 299.557 1006.43 299.091 1004.66 299.091C1003.09 299.091 1001.72 299.5 1000.53 300.318C999.363 301.125 998.448 302.267 997.789 303.744C997.141 305.21 996.818 306.932 996.818 308.909C996.818 310.932 997.136 312.693 997.772 314.193C998.42 315.693 999.329 316.858 1000.5 317.688C1001.68 318.517 1003.07 318.932 1004.66 318.932C1005.7 318.932 1006.65 318.75 1007.51 318.386C1008.36 318.023 1009.08 317.5 1009.67 316.818C1010.26 316.136 1010.68 315.318 1010.93 314.364H1014.95C1014.73 315.909 1014.16 317.301 1013.27 318.54C1012.38 319.767 1011.2 320.744 1009.74 321.472C1008.28 322.188 1006.59 322.545 1004.66 322.545ZM1025.82 306.25V322H1021.79V287.091H1025.82V299.909H1026.16C1026.77 298.557 1027.69 297.483 1028.92 296.688C1030.16 295.881 1031.81 295.477 1033.86 295.477C1035.65 295.477 1037.21 295.835 1038.55 296.551C1039.89 297.256 1040.93 298.341 1041.67 299.807C1042.42 301.261 1042.79 303.114 1042.79 305.364V322H1038.77V305.636C1038.77 303.557 1038.23 301.949 1037.15 300.812C1036.08 299.665 1034.6 299.091 1032.7 299.091C1031.39 299.091 1030.2 299.369 1029.16 299.926C1028.12 300.483 1027.31 301.295 1026.7 302.364C1026.11 303.432 1025.82 304.727 1025.82 306.25ZM1066.12 322V287.091H1077.91C1080.64 287.091 1082.88 287.557 1084.63 288.489C1086.38 289.409 1087.68 290.676 1088.52 292.29C1089.36 293.903 1089.78 295.739 1089.78 297.795C1089.78 299.852 1089.36 301.676 1088.52 303.267C1087.68 304.858 1086.39 306.108 1084.65 307.017C1082.91 307.915 1080.69 308.364 1077.98 308.364H1068.44V304.545H1077.85C1079.71 304.545 1081.21 304.273 1082.35 303.727C1083.49 303.182 1084.32 302.409 1084.84 301.409C1085.36 300.398 1085.62 299.193 1085.62 297.795C1085.62 296.398 1085.36 295.176 1084.84 294.131C1084.31 293.085 1083.48 292.278 1082.33 291.71C1081.18 291.131 1079.66 290.841 1077.78 290.841H1070.35V322H1066.12ZM1082.55 306.318L1091.14 322H1086.23L1077.78 306.318H1082.55ZM1107.93 322.545C1105.41 322.545 1103.23 321.989 1101.4 320.875C1099.59 319.75 1098.18 318.182 1097.19 316.17C1096.22 314.148 1095.73 311.795 1095.73 309.114C1095.73 306.432 1096.22 304.068 1097.19 302.023C1098.18 299.966 1099.56 298.364 1101.32 297.216C1103.09 296.057 1105.16 295.477 1107.52 295.477C1108.89 295.477 1110.23 295.705 1111.56 296.159C1112.89 296.614 1114.1 297.352 1115.19 298.375C1116.29 299.386 1117.15 300.727 1117.8 302.398C1118.45 304.068 1118.77 306.125 1118.77 308.568V310.273H1098.59V306.795H1114.68C1114.68 305.318 1114.39 304 1113.8 302.841C1113.22 301.682 1112.39 300.767 1111.31 300.097C1110.24 299.426 1108.98 299.091 1107.52 299.091C1105.92 299.091 1104.54 299.489 1103.37 300.284C1102.21 301.068 1101.31 302.091 1100.69 303.352C1100.06 304.614 1099.75 305.966 1099.75 307.409V309.727C1099.75 311.705 1100.09 313.381 1100.77 314.756C1101.47 316.119 1102.43 317.159 1103.65 317.875C1104.88 318.58 1106.31 318.932 1107.93 318.932C1108.99 318.932 1109.94 318.784 1110.8 318.489C1111.66 318.182 1112.4 317.727 1113.03 317.125C1113.65 316.511 1114.14 315.75 1114.48 314.841L1118.37 315.932C1117.96 317.25 1117.27 318.409 1116.3 319.409C1115.34 320.398 1114.14 321.17 1112.72 321.727C1111.3 322.273 1109.71 322.545 1107.93 322.545ZM1144.4 301.682L1140.79 302.705C1140.56 302.102 1140.22 301.517 1139.78 300.949C1139.35 300.369 1138.76 299.892 1138.01 299.517C1137.26 299.142 1136.3 298.955 1135.13 298.955C1133.52 298.955 1132.19 299.324 1131.12 300.062C1130.06 300.79 1129.54 301.716 1129.54 302.841C1129.54 303.841 1129.9 304.631 1130.63 305.21C1131.35 305.79 1132.49 306.273 1134.04 306.659L1137.92 307.614C1140.26 308.182 1142.01 309.051 1143.15 310.222C1144.3 311.381 1144.88 312.875 1144.88 314.705C1144.88 316.205 1144.44 317.545 1143.58 318.727C1142.73 319.909 1141.54 320.841 1140 321.523C1138.47 322.205 1136.68 322.545 1134.65 322.545C1131.98 322.545 1129.77 321.966 1128.02 320.807C1126.27 319.648 1125.16 317.955 1124.69 315.727L1128.51 314.773C1128.88 316.182 1129.56 317.239 1130.57 317.943C1131.6 318.648 1132.93 319 1134.58 319C1136.46 319 1137.94 318.602 1139.05 317.807C1140.16 317 1140.72 316.034 1140.72 314.909C1140.72 314 1140.4 313.239 1139.76 312.625C1139.13 312 1138.15 311.534 1136.83 311.227L1132.47 310.205C1130.07 309.636 1128.31 308.756 1127.18 307.562C1126.07 306.358 1125.51 304.852 1125.51 303.045C1125.51 301.568 1125.93 300.261 1126.76 299.125C1127.6 297.989 1128.74 297.097 1130.18 296.449C1131.64 295.801 1133.29 295.477 1135.13 295.477C1137.72 295.477 1139.75 296.045 1141.23 297.182C1142.72 298.318 1143.77 299.818 1144.4 301.682ZM1168.39 311.295V295.818H1172.41V322H1168.39V317.568H1168.12C1167.51 318.898 1166.55 320.028 1165.26 320.96C1163.96 321.881 1162.32 322.341 1160.35 322.341C1158.71 322.341 1157.26 321.983 1155.98 321.267C1154.71 320.54 1153.71 319.449 1152.98 317.994C1152.26 316.528 1151.89 314.682 1151.89 312.455V295.818H1155.91V312.182C1155.91 314.091 1156.45 315.614 1157.52 316.75C1158.6 317.886 1159.97 318.455 1161.64 318.455C1162.64 318.455 1163.66 318.199 1164.69 317.688C1165.74 317.176 1166.61 316.392 1167.32 315.335C1168.03 314.278 1168.39 312.932 1168.39 311.295ZM1184.76 287.091V322H1180.74V287.091H1184.76ZM1204.48 295.818V299.227H1190.91V295.818H1204.48ZM1194.87 289.545H1198.89V314.5C1198.89 315.636 1199.05 316.489 1199.38 317.057C1199.72 317.614 1200.16 317.989 1200.68 318.182C1201.21 318.364 1201.77 318.455 1202.37 318.455C1202.81 318.455 1203.17 318.432 1203.46 318.386C1203.74 318.33 1203.97 318.284 1204.14 318.25L1204.96 321.864C1204.68 321.966 1204.3 322.068 1203.81 322.17C1203.33 322.284 1202.71 322.341 1201.96 322.341C1200.82 322.341 1199.71 322.097 1198.62 321.608C1197.54 321.119 1196.64 320.375 1195.92 319.375C1195.22 318.375 1194.87 317.114 1194.87 315.591V289.545ZM1229.57 301.682L1225.95 302.705C1225.73 302.102 1225.39 301.517 1224.95 300.949C1224.52 300.369 1223.92 299.892 1223.17 299.517C1222.42 299.142 1221.46 298.955 1220.29 298.955C1218.69 298.955 1217.36 299.324 1216.29 300.062C1215.23 300.79 1214.7 301.716 1214.7 302.841C1214.7 303.841 1215.07 304.631 1215.79 305.21C1216.52 305.79 1217.66 306.273 1219.2 306.659L1223.09 307.614C1225.43 308.182 1227.17 309.051 1228.32 310.222C1229.47 311.381 1230.04 312.875 1230.04 314.705C1230.04 316.205 1229.61 317.545 1228.75 318.727C1227.9 319.909 1226.7 320.841 1225.17 321.523C1223.64 322.205 1221.85 322.545 1219.82 322.545C1217.15 322.545 1214.94 321.966 1213.19 320.807C1211.44 319.648 1210.33 317.955 1209.86 315.727L1213.68 314.773C1214.04 316.182 1214.73 317.239 1215.74 317.943C1216.77 318.648 1218.1 319 1219.75 319C1221.62 319 1223.11 318.602 1224.21 317.807C1225.33 317 1225.89 316.034 1225.89 314.909C1225.89 314 1225.57 313.239 1224.93 312.625C1224.29 312 1223.32 311.534 1222 311.227L1217.64 310.205C1215.24 309.636 1213.48 308.756 1212.35 307.562C1211.24 306.358 1210.68 304.852 1210.68 303.045C1210.68 301.568 1211.1 300.261 1211.92 299.125C1212.77 297.989 1213.91 297.097 1215.35 296.449C1216.81 295.801 1218.45 295.477 1220.29 295.477C1222.89 295.477 1224.92 296.045 1226.4 297.182C1227.89 298.318 1228.94 299.818 1229.57 301.682Z" fill="white"/>
</svg>
